<mxfile host="app.diagrams.net" modified="2020-12-05T09:01:58.768Z" agent="5.0 (Macintosh; Intel Mac OS X 10_15_7) AppleWebKit/537.36 (KHTML, like Gecko) Chrome/86.0.4240.198 Safari/537.36 OPR/72.0.3815.400" etag="I278Nwk-YA2pEJz9-ena" version="13.10.9" type="github">
  <diagram id="MU1A3vbpoidgC9RclAel" name="Page-1">
    <mxGraphModel dx="2687" dy="3112" grid="1" gridSize="10" guides="1" tooltips="1" connect="1" arrows="1" fold="1" page="1" pageScale="1" pageWidth="827" pageHeight="1169" math="0" shadow="0">
      <root>
        <mxCell id="0" />
        <mxCell id="1" parent="0" />
        <mxCell id="6IJR6_nJIfUUgxYbHx2m-423" value="" style="rounded=1;whiteSpace=wrap;html=1;absoluteArcSize=1;arcSize=14;strokeWidth=2;" parent="1" vertex="1">
          <mxGeometry x="10" y="280.5" width="1504" height="100" as="geometry" />
        </mxCell>
        <mxCell id="6IJR6_nJIfUUgxYbHx2m-422" value="" style="rounded=1;whiteSpace=wrap;html=1;absoluteArcSize=1;arcSize=14;strokeWidth=2;" parent="1" vertex="1">
          <mxGeometry x="43" y="100.34" width="1494.37" height="100" as="geometry" />
        </mxCell>
        <mxCell id="6IJR6_nJIfUUgxYbHx2m-307" value="" style="rounded=1;whiteSpace=wrap;html=1;absoluteArcSize=1;arcSize=14;strokeWidth=2;" parent="1" vertex="1">
          <mxGeometry x="1687" y="-789" width="273" height="1290" as="geometry" />
        </mxCell>
        <mxCell id="6IJR6_nJIfUUgxYbHx2m-306" value="" style="rounded=1;whiteSpace=wrap;html=1;absoluteArcSize=1;arcSize=14;strokeWidth=2;" parent="1" vertex="1">
          <mxGeometry x="2140" y="-669" width="265" height="550" as="geometry" />
        </mxCell>
        <mxCell id="6IJR6_nJIfUUgxYbHx2m-13" value="" style="image;html=1;image=img/lib/clip_art/networking/Router_Icon_128x128.png" parent="1" vertex="1">
          <mxGeometry x="671" y="-360" width="80" height="80" as="geometry" />
        </mxCell>
        <mxCell id="6IJR6_nJIfUUgxYbHx2m-15" value="" style="outlineConnect=0;dashed=0;verticalLabelPosition=bottom;verticalAlign=top;align=center;html=1;shape=mxgraph.aws3.router;fillColor=#F58534;gradientColor=none;" parent="1" vertex="1">
          <mxGeometry x="820" y="-720" width="130" height="72" as="geometry" />
        </mxCell>
        <mxCell id="6IJR6_nJIfUUgxYbHx2m-16" value="" style="shape=mxgraph.cisco.routers.router;html=1;pointerEvents=1;dashed=0;fillColor=#036897;strokeColor=#ffffff;strokeWidth=2;verticalLabelPosition=bottom;verticalAlign=top;align=center;outlineConnect=0;" parent="1" vertex="1">
          <mxGeometry x="41" y="767" width="78" height="53" as="geometry" />
        </mxCell>
        <mxCell id="6IJR6_nJIfUUgxYbHx2m-18" value="" style="shape=mxgraph.cisco.routers.router;html=1;pointerEvents=1;dashed=0;fillColor=#036897;strokeColor=#ffffff;strokeWidth=2;verticalLabelPosition=bottom;verticalAlign=top;align=center;outlineConnect=0;" parent="1" vertex="1">
          <mxGeometry x="1965" y="1052" width="78" height="53" as="geometry" />
        </mxCell>
        <mxCell id="6IJR6_nJIfUUgxYbHx2m-19" value="" style="shape=mxgraph.cisco.routers.router;html=1;pointerEvents=1;dashed=0;fillColor=#036897;strokeColor=#ffffff;strokeWidth=2;verticalLabelPosition=bottom;verticalAlign=top;align=center;outlineConnect=0;" parent="1" vertex="1">
          <mxGeometry x="42" y="1253" width="78" height="53" as="geometry" />
        </mxCell>
        <mxCell id="6IJR6_nJIfUUgxYbHx2m-20" value="" style="shape=mxgraph.cisco.routers.router;html=1;pointerEvents=1;dashed=0;fillColor=#036897;strokeColor=#ffffff;strokeWidth=2;verticalLabelPosition=bottom;verticalAlign=top;align=center;outlineConnect=0;" parent="1" vertex="1">
          <mxGeometry x="43" y="1490" width="78" height="53" as="geometry" />
        </mxCell>
        <mxCell id="6IJR6_nJIfUUgxYbHx2m-21" value="" style="shape=mxgraph.cisco.routers.router;html=1;pointerEvents=1;dashed=0;fillColor=#036897;strokeColor=#ffffff;strokeWidth=2;verticalLabelPosition=bottom;verticalAlign=top;align=center;outlineConnect=0;" parent="1" vertex="1">
          <mxGeometry x="1970" y="1250" width="78" height="53" as="geometry" />
        </mxCell>
        <mxCell id="6IJR6_nJIfUUgxYbHx2m-22" value="" style="shape=mxgraph.cisco.routers.router;html=1;pointerEvents=1;dashed=0;fillColor=#036897;strokeColor=#ffffff;strokeWidth=2;verticalLabelPosition=bottom;verticalAlign=top;align=center;outlineConnect=0;" parent="1" vertex="1">
          <mxGeometry x="43" y="1008" width="78" height="53" as="geometry" />
        </mxCell>
        <mxCell id="6IJR6_nJIfUUgxYbHx2m-23" value="" style="shape=mxgraph.cisco.routers.router;html=1;pointerEvents=1;dashed=0;fillColor=#036897;strokeColor=#ffffff;strokeWidth=2;verticalLabelPosition=bottom;verticalAlign=top;align=center;outlineConnect=0;" parent="1" vertex="1">
          <mxGeometry x="1991" y="1478.5" width="78" height="53" as="geometry" />
        </mxCell>
        <mxCell id="6IJR6_nJIfUUgxYbHx2m-24" value="" style="shape=mxgraph.cisco.routers.router;html=1;pointerEvents=1;dashed=0;fillColor=#036897;strokeColor=#ffffff;strokeWidth=2;verticalLabelPosition=bottom;verticalAlign=top;align=center;outlineConnect=0;" parent="1" vertex="1">
          <mxGeometry x="1970" y="775" width="78" height="53" as="geometry" />
        </mxCell>
        <mxCell id="6IJR6_nJIfUUgxYbHx2m-26" value="" style="fontColor=#0066CC;verticalAlign=top;verticalLabelPosition=bottom;labelPosition=center;align=center;html=1;outlineConnect=0;fillColor=#CCCCCC;strokeColor=#6881B3;gradientColor=none;gradientDirection=north;strokeWidth=2;shape=mxgraph.networks.firewall;" parent="1" vertex="1">
          <mxGeometry x="660" y="-600" width="100" height="100" as="geometry" />
        </mxCell>
        <mxCell id="6IJR6_nJIfUUgxYbHx2m-27" value="" style="fontColor=#0066CC;verticalAlign=top;verticalLabelPosition=bottom;labelPosition=center;align=center;html=1;outlineConnect=0;fillColor=#CCCCCC;strokeColor=#6881B3;gradientColor=none;gradientDirection=north;strokeWidth=2;shape=mxgraph.networks.firewall;" parent="1" vertex="1">
          <mxGeometry x="1000" y="-604" width="100" height="100" as="geometry" />
        </mxCell>
        <mxCell id="6IJR6_nJIfUUgxYbHx2m-28" value="&lt;b&gt;&lt;font style=&quot;font-size: 18px&quot;&gt;Remote Router&lt;/font&gt;&lt;/b&gt;" style="text;html=1;align=center;verticalAlign=middle;resizable=0;points=[];autosize=1;" parent="1" vertex="1">
          <mxGeometry x="424" y="670" width="140" height="20" as="geometry" />
        </mxCell>
        <mxCell id="6IJR6_nJIfUUgxYbHx2m-29" value="&lt;b&gt;&lt;font style=&quot;font-size: 18px&quot;&gt;Remote Router&lt;/font&gt;&lt;/b&gt;" style="text;html=1;align=center;verticalAlign=middle;resizable=0;points=[];autosize=1;" parent="1" vertex="1">
          <mxGeometry x="1970" y="1537" width="140" height="20" as="geometry" />
        </mxCell>
        <mxCell id="6IJR6_nJIfUUgxYbHx2m-30" value="&lt;b&gt;&lt;font style=&quot;font-size: 18px&quot;&gt;Remote Router&lt;/font&gt;&lt;/b&gt;" style="text;html=1;align=center;verticalAlign=middle;resizable=0;points=[];autosize=1;" parent="1" vertex="1">
          <mxGeometry x="30" y="1586.5" width="140" height="20" as="geometry" />
        </mxCell>
        <mxCell id="6IJR6_nJIfUUgxYbHx2m-31" value="&lt;b&gt;&lt;font style=&quot;font-size: 18px&quot;&gt;Remote Router&lt;/font&gt;&lt;/b&gt;" style="text;html=1;align=center;verticalAlign=middle;resizable=0;points=[];autosize=1;" parent="1" vertex="1">
          <mxGeometry x="30" y="1346.5" width="140" height="20" as="geometry" />
        </mxCell>
        <mxCell id="6IJR6_nJIfUUgxYbHx2m-32" value="&lt;b&gt;&lt;font style=&quot;font-size: 18px&quot;&gt;Remote Router&lt;/font&gt;&lt;/b&gt;" style="text;html=1;align=center;verticalAlign=middle;resizable=0;points=[];autosize=1;" parent="1" vertex="1">
          <mxGeometry x="1960" y="1310" width="140" height="20" as="geometry" />
        </mxCell>
        <mxCell id="6IJR6_nJIfUUgxYbHx2m-33" value="&lt;b&gt;&lt;font style=&quot;font-size: 18px&quot;&gt;Remote Router&lt;/font&gt;&lt;/b&gt;" style="text;html=1;align=center;verticalAlign=middle;resizable=0;points=[];autosize=1;" parent="1" vertex="1">
          <mxGeometry x="1950" y="1110" width="140" height="20" as="geometry" />
        </mxCell>
        <mxCell id="6IJR6_nJIfUUgxYbHx2m-34" value="&lt;b&gt;&lt;font style=&quot;font-size: 18px&quot;&gt;Remote Router&lt;/font&gt;&lt;/b&gt;" style="text;html=1;align=center;verticalAlign=middle;resizable=0;points=[];autosize=1;" parent="1" vertex="1">
          <mxGeometry x="1950" y="835" width="140" height="20" as="geometry" />
        </mxCell>
        <mxCell id="6IJR6_nJIfUUgxYbHx2m-35" value="&lt;b&gt;&lt;font style=&quot;font-size: 18px&quot;&gt;Remote Router&lt;/font&gt;&lt;/b&gt;" style="text;html=1;align=center;verticalAlign=middle;resizable=0;points=[];autosize=1;" parent="1" vertex="1">
          <mxGeometry x="30" y="1106.5" width="140" height="20" as="geometry" />
        </mxCell>
        <mxCell id="6IJR6_nJIfUUgxYbHx2m-36" value="" style="aspect=fixed;perimeter=ellipsePerimeter;html=1;align=center;shadow=0;dashed=0;fontColor=#4277BB;labelBackgroundColor=#ffffff;fontSize=12;spacingTop=3;image;image=img/lib/ibm/vpc/Router.svg;" parent="1" vertex="1">
          <mxGeometry x="236" y="763.5" width="60" height="60" as="geometry" />
        </mxCell>
        <mxCell id="6IJR6_nJIfUUgxYbHx2m-37" value="" style="aspect=fixed;perimeter=ellipsePerimeter;html=1;align=center;shadow=0;dashed=0;fontColor=#4277BB;labelBackgroundColor=#ffffff;fontSize=12;spacingTop=3;image;image=img/lib/ibm/vpc/Router.svg;" parent="1" vertex="1">
          <mxGeometry x="1810" y="1477" width="60" height="60" as="geometry" />
        </mxCell>
        <mxCell id="6IJR6_nJIfUUgxYbHx2m-38" value="" style="aspect=fixed;perimeter=ellipsePerimeter;html=1;align=center;shadow=0;dashed=0;fontColor=#4277BB;labelBackgroundColor=#ffffff;fontSize=12;spacingTop=3;image;image=img/lib/ibm/vpc/Router.svg;" parent="1" vertex="1">
          <mxGeometry x="237" y="1490" width="60" height="60" as="geometry" />
        </mxCell>
        <mxCell id="6IJR6_nJIfUUgxYbHx2m-39" value="" style="aspect=fixed;perimeter=ellipsePerimeter;html=1;align=center;shadow=0;dashed=0;fontColor=#4277BB;labelBackgroundColor=#ffffff;fontSize=12;spacingTop=3;image;image=img/lib/ibm/vpc/Router.svg;" parent="1" vertex="1">
          <mxGeometry x="1795" y="1250" width="60" height="60" as="geometry" />
        </mxCell>
        <mxCell id="6IJR6_nJIfUUgxYbHx2m-40" value="" style="aspect=fixed;perimeter=ellipsePerimeter;html=1;align=center;shadow=0;dashed=0;fontColor=#4277BB;labelBackgroundColor=#ffffff;fontSize=12;spacingTop=3;image;image=img/lib/ibm/vpc/Router.svg;" parent="1" vertex="1">
          <mxGeometry x="1790" y="1045" width="60" height="60" as="geometry" />
        </mxCell>
        <mxCell id="6IJR6_nJIfUUgxYbHx2m-41" value="" style="aspect=fixed;perimeter=ellipsePerimeter;html=1;align=center;shadow=0;dashed=0;fontColor=#4277BB;labelBackgroundColor=#ffffff;fontSize=12;spacingTop=3;image;image=img/lib/ibm/vpc/Router.svg;" parent="1" vertex="1">
          <mxGeometry x="236" y="1249" width="60" height="60" as="geometry" />
        </mxCell>
        <mxCell id="6IJR6_nJIfUUgxYbHx2m-42" value="" style="aspect=fixed;perimeter=ellipsePerimeter;html=1;align=center;shadow=0;dashed=0;fontColor=#4277BB;labelBackgroundColor=#ffffff;fontSize=12;spacingTop=3;image;image=img/lib/ibm/vpc/Router.svg;" parent="1" vertex="1">
          <mxGeometry x="235" y="1005" width="60" height="60" as="geometry" />
        </mxCell>
        <mxCell id="6IJR6_nJIfUUgxYbHx2m-43" value="" style="aspect=fixed;perimeter=ellipsePerimeter;html=1;align=center;shadow=0;dashed=0;fontColor=#4277BB;labelBackgroundColor=#ffffff;fontSize=12;spacingTop=3;image;image=img/lib/ibm/vpc/Router.svg;" parent="1" vertex="1">
          <mxGeometry x="1795" y="775" width="60" height="60" as="geometry" />
        </mxCell>
        <mxCell id="6IJR6_nJIfUUgxYbHx2m-49" value="" style="image;html=1;image=img/lib/clip_art/networking/Wireless_Router_N_128x128.png" parent="1" vertex="1">
          <mxGeometry x="-275" y="-38.5" width="59" height="80" as="geometry" />
        </mxCell>
        <mxCell id="6IJR6_nJIfUUgxYbHx2m-52" value="&lt;b&gt;&lt;font style=&quot;font-size: 18px&quot;&gt;Edge Switch&lt;/font&gt;&lt;/b&gt;" style="text;html=1;align=center;verticalAlign=middle;resizable=0;points=[];autosize=1;" parent="1" vertex="1">
          <mxGeometry x="205" y="823.5" width="120" height="20" as="geometry" />
        </mxCell>
        <mxCell id="6IJR6_nJIfUUgxYbHx2m-53" value="&lt;b&gt;&lt;font style=&quot;font-size: 18px&quot;&gt;Edge Switch&lt;/font&gt;&lt;/b&gt;" style="text;html=1;align=center;verticalAlign=middle;resizable=0;points=[];autosize=1;" parent="1" vertex="1">
          <mxGeometry x="211" y="1550" width="120" height="20" as="geometry" />
        </mxCell>
        <mxCell id="6IJR6_nJIfUUgxYbHx2m-54" value="&lt;b&gt;&lt;font style=&quot;font-size: 18px&quot;&gt;Edge Switch&lt;/font&gt;&lt;/b&gt;" style="text;html=1;align=center;verticalAlign=middle;resizable=0;points=[];autosize=1;" parent="1" vertex="1">
          <mxGeometry x="1780" y="1550" width="120" height="20" as="geometry" />
        </mxCell>
        <mxCell id="6IJR6_nJIfUUgxYbHx2m-55" value="&lt;b&gt;&lt;font style=&quot;font-size: 18px&quot;&gt;Edge Switch&lt;/font&gt;&lt;/b&gt;" style="text;html=1;align=center;verticalAlign=middle;resizable=0;points=[];autosize=1;" parent="1" vertex="1">
          <mxGeometry x="1783" y="1320" width="120" height="20" as="geometry" />
        </mxCell>
        <mxCell id="6IJR6_nJIfUUgxYbHx2m-56" value="&lt;b&gt;&lt;font style=&quot;font-size: 18px&quot;&gt;Edge Switch&lt;/font&gt;&lt;/b&gt;" style="text;html=1;align=center;verticalAlign=middle;resizable=0;points=[];autosize=1;" parent="1" vertex="1">
          <mxGeometry x="1765" y="1110" width="120" height="20" as="geometry" />
        </mxCell>
        <mxCell id="6IJR6_nJIfUUgxYbHx2m-57" value="&lt;b&gt;&lt;font style=&quot;font-size: 18px&quot;&gt;Edge Switch&lt;/font&gt;&lt;/b&gt;" style="text;html=1;align=center;verticalAlign=middle;resizable=0;points=[];autosize=1;" parent="1" vertex="1">
          <mxGeometry x="1780" y="842.5" width="120" height="20" as="geometry" />
        </mxCell>
        <mxCell id="6IJR6_nJIfUUgxYbHx2m-58" value="&lt;b&gt;&lt;font style=&quot;font-size: 18px&quot;&gt;Edge Switch&lt;/font&gt;&lt;/b&gt;" style="text;html=1;align=center;verticalAlign=middle;resizable=0;points=[];autosize=1;" parent="1" vertex="1">
          <mxGeometry x="211" y="1313" width="120" height="20" as="geometry" />
        </mxCell>
        <mxCell id="6IJR6_nJIfUUgxYbHx2m-59" value="&lt;b&gt;&lt;font style=&quot;font-size: 18px&quot;&gt;Edge Switch&lt;/font&gt;&lt;/b&gt;" style="text;html=1;align=center;verticalAlign=middle;resizable=0;points=[];autosize=1;" parent="1" vertex="1">
          <mxGeometry x="206" y="1065" width="120" height="20" as="geometry" />
        </mxCell>
        <mxCell id="6IJR6_nJIfUUgxYbHx2m-60" value="" style="verticalLabelPosition=bottom;html=1;fillColor=#A153A0;strokeColor=#ffffff;verticalAlign=top;align=center;points=[[0,0.5,0],[0.125,0.25,0],[0.25,0,0],[0.5,0,0],[0.75,0,0],[0.875,0.25,0],[1,0.5,0],[0.875,0.75,0],[0.75,1,0],[0.5,1,0],[0.125,0.75,0]];pointerEvents=1;shape=mxgraph.cisco_safe.compositeIcon;bgIcon=mxgraph.cisco_safe.design.blank_device;resIcon=mxgraph.cisco_safe.design.l2_switch;rotation=-180;" parent="1" vertex="1">
          <mxGeometry x="329" y="-24.49999999999997" width="106" height="50" as="geometry" />
        </mxCell>
        <mxCell id="6IJR6_nJIfUUgxYbHx2m-61" value="&lt;b&gt;&lt;font style=&quot;font-size: 18px&quot;&gt;L2 Switch&lt;/font&gt;&lt;/b&gt;" style="text;html=1;align=center;verticalAlign=middle;resizable=0;points=[];autosize=1;" parent="1" vertex="1">
          <mxGeometry x="1519" y="-39" width="100" height="20" as="geometry" />
        </mxCell>
        <mxCell id="6IJR6_nJIfUUgxYbHx2m-62" value="&lt;b&gt;&lt;font style=&quot;font-size: 18px&quot;&gt;Firewall&lt;/font&gt;&lt;/b&gt;" style="text;html=1;align=center;verticalAlign=middle;resizable=0;points=[];autosize=1;" parent="1" vertex="1">
          <mxGeometry x="556" y="-524" width="80" height="20" as="geometry" />
        </mxCell>
        <mxCell id="6IJR6_nJIfUUgxYbHx2m-63" value="&lt;b&gt;&lt;font style=&quot;font-size: 18px&quot;&gt;Firewall&lt;/font&gt;&lt;/b&gt;" style="text;html=1;align=center;verticalAlign=middle;resizable=0;points=[];autosize=1;" parent="1" vertex="1">
          <mxGeometry x="1120" y="-524" width="80" height="20" as="geometry" />
        </mxCell>
        <mxCell id="6IJR6_nJIfUUgxYbHx2m-64" value="" style="verticalLabelPosition=bottom;html=1;fillColor=#A153A0;strokeColor=#ffffff;verticalAlign=top;align=center;points=[[0,0.5,0],[0.125,0.25,0],[0.25,0,0],[0.5,0,0],[0.75,0,0],[0.875,0.25,0],[1,0.5,0],[0.875,0.75,0],[0.75,1,0],[0.5,1,0],[0.125,0.75,0]];pointerEvents=1;shape=mxgraph.cisco_safe.compositeIcon;bgIcon=mxgraph.cisco_safe.design.blank_device;resIcon=mxgraph.cisco_safe.design.l2_switch;rotation=-180;" parent="1" vertex="1">
          <mxGeometry x="1514" y="-14" width="105" height="50" as="geometry" />
        </mxCell>
        <mxCell id="6IJR6_nJIfUUgxYbHx2m-65" value="&lt;b&gt;&lt;font style=&quot;font-size: 18px&quot;&gt;L2 Switch&lt;/font&gt;&lt;/b&gt;" style="text;html=1;align=center;verticalAlign=middle;resizable=0;points=[];autosize=1;" parent="1" vertex="1">
          <mxGeometry x="326" y="42.5" width="100" height="20" as="geometry" />
        </mxCell>
        <mxCell id="6IJR6_nJIfUUgxYbHx2m-68" value="&lt;b&gt;RAS Server&lt;/b&gt;" style="text;html=1;align=center;verticalAlign=middle;resizable=0;points=[];autosize=1;" parent="1" vertex="1">
          <mxGeometry x="953" y="1448.5" width="80" height="20" as="geometry" />
        </mxCell>
        <mxCell id="6IJR6_nJIfUUgxYbHx2m-74" value="" style="endArrow=classic;startArrow=classic;html=1;exitX=1;exitY=0.5;exitDx=0;exitDy=0;exitPerimeter=0;strokeWidth=2;" parent="1" source="6IJR6_nJIfUUgxYbHx2m-16" edge="1">
          <mxGeometry width="50" height="50" relative="1" as="geometry">
            <mxPoint x="155" y="830" as="sourcePoint" />
            <mxPoint x="235" y="794" as="targetPoint" />
          </mxGeometry>
        </mxCell>
        <mxCell id="6IJR6_nJIfUUgxYbHx2m-75" value="" style="endArrow=classic;startArrow=classic;html=1;exitX=1;exitY=0.5;exitDx=0;exitDy=0;exitPerimeter=0;strokeWidth=3;" parent="1" edge="1">
          <mxGeometry width="50" height="50" relative="1" as="geometry">
            <mxPoint x="120" y="1519.5" as="sourcePoint" />
            <mxPoint x="236" y="1520" as="targetPoint" />
            <Array as="points" />
          </mxGeometry>
        </mxCell>
        <mxCell id="6IJR6_nJIfUUgxYbHx2m-76" value="" style="endArrow=classic;startArrow=classic;html=1;strokeWidth=3;entryX=0;entryY=0.5;entryDx=0;entryDy=0;entryPerimeter=0;" parent="1" target="6IJR6_nJIfUUgxYbHx2m-23" edge="1">
          <mxGeometry width="50" height="50" relative="1" as="geometry">
            <mxPoint x="1870" y="1505" as="sourcePoint" />
            <mxPoint x="1970" y="1504.79" as="targetPoint" />
          </mxGeometry>
        </mxCell>
        <mxCell id="6IJR6_nJIfUUgxYbHx2m-77" value="" style="endArrow=classic;startArrow=classic;html=1;exitX=1;exitY=0.5;exitDx=0;exitDy=0;exitPerimeter=0;strokeWidth=3;" parent="1" edge="1">
          <mxGeometry width="50" height="50" relative="1" as="geometry">
            <mxPoint x="1855" y="1279.29" as="sourcePoint" />
            <mxPoint x="1971" y="1279.79" as="targetPoint" />
          </mxGeometry>
        </mxCell>
        <mxCell id="6IJR6_nJIfUUgxYbHx2m-78" value="" style="endArrow=classic;startArrow=classic;html=1;exitX=1;exitY=0.5;exitDx=0;exitDy=0;exitPerimeter=0;strokeWidth=3;" parent="1" edge="1">
          <mxGeometry width="50" height="50" relative="1" as="geometry">
            <mxPoint x="1855" y="803" as="sourcePoint" />
            <mxPoint x="1971" y="803.5" as="targetPoint" />
          </mxGeometry>
        </mxCell>
        <mxCell id="6IJR6_nJIfUUgxYbHx2m-79" value="" style="endArrow=classic;startArrow=classic;html=1;exitX=1;exitY=0.5;exitDx=0;exitDy=0;exitPerimeter=0;strokeWidth=3;" parent="1" edge="1">
          <mxGeometry width="50" height="50" relative="1" as="geometry">
            <mxPoint x="1850" y="1080" as="sourcePoint" />
            <mxPoint x="1966" y="1080.5" as="targetPoint" />
          </mxGeometry>
        </mxCell>
        <mxCell id="6IJR6_nJIfUUgxYbHx2m-80" value="" style="endArrow=classic;startArrow=classic;html=1;exitX=1;exitY=0.5;exitDx=0;exitDy=0;exitPerimeter=0;strokeWidth=3;" parent="1" edge="1">
          <mxGeometry width="50" height="50" relative="1" as="geometry">
            <mxPoint x="119" y="1280" as="sourcePoint" />
            <mxPoint x="235" y="1280.5" as="targetPoint" />
          </mxGeometry>
        </mxCell>
        <mxCell id="6IJR6_nJIfUUgxYbHx2m-81" value="" style="endArrow=classic;startArrow=classic;html=1;exitX=1;exitY=0.5;exitDx=0;exitDy=0;exitPerimeter=0;strokeWidth=3;" parent="1" edge="1">
          <mxGeometry width="50" height="50" relative="1" as="geometry">
            <mxPoint x="121" y="1037.5" as="sourcePoint" />
            <mxPoint x="237" y="1038" as="targetPoint" />
          </mxGeometry>
        </mxCell>
        <mxCell id="6IJR6_nJIfUUgxYbHx2m-91" value="" style="aspect=fixed;perimeter=ellipsePerimeter;html=1;align=center;shadow=0;dashed=0;fontColor=#4277BB;labelBackgroundColor=#ffffff;fontSize=12;spacingTop=3;image;image=img/lib/ibm/vpc/Internet.svg;" parent="1" vertex="1">
          <mxGeometry x="405" y="708.5" width="170" height="170" as="geometry" />
        </mxCell>
        <mxCell id="6IJR6_nJIfUUgxYbHx2m-92" value="" style="aspect=fixed;perimeter=ellipsePerimeter;html=1;align=center;shadow=0;dashed=0;fontColor=#4277BB;labelBackgroundColor=#ffffff;fontSize=12;spacingTop=3;image;image=img/lib/ibm/vpc/Internet.svg;" parent="1" vertex="1">
          <mxGeometry x="405" y="1198" width="170" height="170" as="geometry" />
        </mxCell>
        <mxCell id="6IJR6_nJIfUUgxYbHx2m-93" value="" style="aspect=fixed;perimeter=ellipsePerimeter;html=1;align=center;shadow=0;dashed=0;fontColor=#4277BB;labelBackgroundColor=#ffffff;fontSize=12;spacingTop=3;image;image=img/lib/ibm/vpc/Internet.svg;" parent="1" vertex="1">
          <mxGeometry x="405" y="950" width="170" height="170" as="geometry" />
        </mxCell>
        <mxCell id="6IJR6_nJIfUUgxYbHx2m-94" value="" style="aspect=fixed;perimeter=ellipsePerimeter;html=1;align=center;shadow=0;dashed=0;fontColor=#4277BB;labelBackgroundColor=#ffffff;fontSize=12;spacingTop=3;image;image=img/lib/ibm/vpc/Internet.svg;" parent="1" vertex="1">
          <mxGeometry x="405" y="1476.5" width="170" height="170" as="geometry" />
        </mxCell>
        <mxCell id="6IJR6_nJIfUUgxYbHx2m-95" value="" style="aspect=fixed;perimeter=ellipsePerimeter;html=1;align=center;shadow=0;dashed=0;fontColor=#4277BB;labelBackgroundColor=#ffffff;fontSize=12;spacingTop=3;image;image=img/lib/ibm/vpc/Internet.svg;" parent="1" vertex="1">
          <mxGeometry x="1527" y="1420" width="170" height="170" as="geometry" />
        </mxCell>
        <mxCell id="6IJR6_nJIfUUgxYbHx2m-96" value="" style="aspect=fixed;perimeter=ellipsePerimeter;html=1;align=center;shadow=0;dashed=0;fontColor=#4277BB;labelBackgroundColor=#ffffff;fontSize=12;spacingTop=3;image;image=img/lib/ibm/vpc/Internet.svg;" parent="1" vertex="1">
          <mxGeometry x="1517" y="1210" width="170" height="170" as="geometry" />
        </mxCell>
        <mxCell id="6IJR6_nJIfUUgxYbHx2m-97" value="" style="aspect=fixed;perimeter=ellipsePerimeter;html=1;align=center;shadow=0;dashed=0;fontColor=#4277BB;labelBackgroundColor=#ffffff;fontSize=12;spacingTop=3;image;image=img/lib/ibm/vpc/Internet.svg;" parent="1" vertex="1">
          <mxGeometry x="1515" y="990" width="170" height="170" as="geometry" />
        </mxCell>
        <mxCell id="6IJR6_nJIfUUgxYbHx2m-98" value="" style="aspect=fixed;perimeter=ellipsePerimeter;html=1;align=center;shadow=0;dashed=0;fontColor=#4277BB;labelBackgroundColor=#ffffff;fontSize=12;spacingTop=3;image;image=img/lib/ibm/vpc/Internet.svg;" parent="1" vertex="1">
          <mxGeometry x="1514" y="720" width="170" height="170" as="geometry" />
        </mxCell>
        <mxCell id="6IJR6_nJIfUUgxYbHx2m-99" value="&lt;b&gt;&lt;font style=&quot;font-size: 18px&quot;&gt;Internet&lt;/font&gt;&lt;/b&gt;" style="text;html=1;align=center;verticalAlign=middle;resizable=0;points=[];autosize=1;" parent="1" vertex="1">
          <mxGeometry x="450" y="880" width="80" height="20" as="geometry" />
        </mxCell>
        <mxCell id="6IJR6_nJIfUUgxYbHx2m-100" value="&lt;b&gt;&lt;font style=&quot;font-size: 18px&quot;&gt;Internet&lt;/font&gt;&lt;/b&gt;" style="text;html=1;align=center;verticalAlign=middle;resizable=0;points=[];autosize=1;" parent="1" vertex="1">
          <mxGeometry x="450" y="1655.5" width="80" height="20" as="geometry" />
        </mxCell>
        <mxCell id="6IJR6_nJIfUUgxYbHx2m-101" value="&lt;b&gt;&lt;font style=&quot;font-size: 18px&quot;&gt;Internet&lt;/font&gt;&lt;/b&gt;" style="text;html=1;align=center;verticalAlign=middle;resizable=0;points=[];autosize=1;" parent="1" vertex="1">
          <mxGeometry x="1566.12" y="1390" width="80" height="20" as="geometry" />
        </mxCell>
        <mxCell id="6IJR6_nJIfUUgxYbHx2m-102" value="&lt;b&gt;&lt;font style=&quot;font-size: 18px&quot;&gt;Internet&lt;/font&gt;&lt;/b&gt;" style="text;html=1;align=center;verticalAlign=middle;resizable=0;points=[];autosize=1;" parent="1" vertex="1">
          <mxGeometry x="450" y="1380" width="80" height="20" as="geometry" />
        </mxCell>
        <mxCell id="6IJR6_nJIfUUgxYbHx2m-103" value="&lt;b&gt;&lt;font style=&quot;font-size: 18px&quot;&gt;Internet&lt;/font&gt;&lt;/b&gt;" style="text;html=1;align=center;verticalAlign=middle;resizable=0;points=[];autosize=1;" parent="1" vertex="1">
          <mxGeometry x="445" y="1130" width="80" height="20" as="geometry" />
        </mxCell>
        <mxCell id="6IJR6_nJIfUUgxYbHx2m-104" value="&lt;b&gt;&lt;font style=&quot;font-size: 18px&quot;&gt;Internet&lt;/font&gt;&lt;/b&gt;" style="text;html=1;align=center;verticalAlign=middle;resizable=0;points=[];autosize=1;" parent="1" vertex="1">
          <mxGeometry x="1555" y="1180" width="80" height="20" as="geometry" />
        </mxCell>
        <mxCell id="6IJR6_nJIfUUgxYbHx2m-105" value="&lt;b&gt;&lt;font style=&quot;font-size: 18px&quot;&gt;Internet&lt;/font&gt;&lt;/b&gt;" style="text;html=1;align=center;verticalAlign=middle;resizable=0;points=[];autosize=1;" parent="1" vertex="1">
          <mxGeometry x="1552.35" y="960" width="80" height="20" as="geometry" />
        </mxCell>
        <mxCell id="6IJR6_nJIfUUgxYbHx2m-106" value="&lt;b&gt;&lt;font style=&quot;font-size: 18px&quot;&gt;Internet&lt;/font&gt;&lt;/b&gt;" style="text;html=1;align=center;verticalAlign=middle;resizable=0;points=[];autosize=1;" parent="1" vertex="1">
          <mxGeometry x="1564" y="898" width="80" height="20" as="geometry" />
        </mxCell>
        <mxCell id="6IJR6_nJIfUUgxYbHx2m-115" value="" style="endArrow=classic;startArrow=classic;html=1;exitX=1;exitY=0.5;exitDx=0;exitDy=0;exitPerimeter=0;strokeWidth=3;" parent="1" edge="1">
          <mxGeometry width="50" height="50" relative="1" as="geometry">
            <mxPoint x="297" y="789.5" as="sourcePoint" />
            <mxPoint x="405" y="790.5" as="targetPoint" />
          </mxGeometry>
        </mxCell>
        <mxCell id="6IJR6_nJIfUUgxYbHx2m-116" value="" style="endArrow=classic;startArrow=classic;html=1;exitX=1;exitY=0.5;exitDx=0;exitDy=0;exitPerimeter=0;strokeWidth=3;" parent="1" edge="1">
          <mxGeometry width="50" height="50" relative="1" as="geometry">
            <mxPoint x="297" y="1519.5" as="sourcePoint" />
            <mxPoint x="405" y="1520.5" as="targetPoint" />
          </mxGeometry>
        </mxCell>
        <mxCell id="6IJR6_nJIfUUgxYbHx2m-117" value="" style="endArrow=classic;startArrow=classic;html=1;exitX=1;exitY=0.5;exitDx=0;exitDy=0;exitPerimeter=0;strokeWidth=3;" parent="1" edge="1">
          <mxGeometry width="50" height="50" relative="1" as="geometry">
            <mxPoint x="297" y="1282.5" as="sourcePoint" />
            <mxPoint x="405" y="1283.5" as="targetPoint" />
          </mxGeometry>
        </mxCell>
        <mxCell id="6IJR6_nJIfUUgxYbHx2m-118" value="" style="endArrow=classic;startArrow=classic;html=1;exitX=1;exitY=0.5;exitDx=0;exitDy=0;exitPerimeter=0;strokeWidth=3;" parent="1" edge="1">
          <mxGeometry width="50" height="50" relative="1" as="geometry">
            <mxPoint x="1697" y="1510" as="sourcePoint" />
            <mxPoint x="1805" y="1511" as="targetPoint" />
          </mxGeometry>
        </mxCell>
        <mxCell id="6IJR6_nJIfUUgxYbHx2m-119" value="" style="endArrow=classic;startArrow=classic;html=1;exitX=1;exitY=0.5;exitDx=0;exitDy=0;exitPerimeter=0;strokeWidth=3;" parent="1" edge="1">
          <mxGeometry width="50" height="50" relative="1" as="geometry">
            <mxPoint x="1681.2" y="1279.29" as="sourcePoint" />
            <mxPoint x="1789.2" y="1280.29" as="targetPoint" />
          </mxGeometry>
        </mxCell>
        <mxCell id="6IJR6_nJIfUUgxYbHx2m-120" value="" style="endArrow=classic;startArrow=classic;html=1;exitX=1;exitY=0.5;exitDx=0;exitDy=0;exitPerimeter=0;strokeWidth=3;" parent="1" edge="1">
          <mxGeometry width="50" height="50" relative="1" as="geometry">
            <mxPoint x="1681.2" y="1074.29" as="sourcePoint" />
            <mxPoint x="1789.2" y="1075.29" as="targetPoint" />
          </mxGeometry>
        </mxCell>
        <mxCell id="6IJR6_nJIfUUgxYbHx2m-121" value="" style="endArrow=classic;startArrow=classic;html=1;exitX=1;exitY=0.5;exitDx=0;exitDy=0;exitPerimeter=0;strokeWidth=3;" parent="1" edge="1">
          <mxGeometry width="50" height="50" relative="1" as="geometry">
            <mxPoint x="1684" y="804.29" as="sourcePoint" />
            <mxPoint x="1792" y="805.29" as="targetPoint" />
          </mxGeometry>
        </mxCell>
        <mxCell id="6IJR6_nJIfUUgxYbHx2m-122" value="" style="endArrow=classic;startArrow=classic;html=1;exitX=1;exitY=0.5;exitDx=0;exitDy=0;exitPerimeter=0;strokeWidth=3;" parent="1" edge="1">
          <mxGeometry width="50" height="50" relative="1" as="geometry">
            <mxPoint x="297" y="1040" as="sourcePoint" />
            <mxPoint x="405" y="1041" as="targetPoint" />
            <Array as="points" />
          </mxGeometry>
        </mxCell>
        <mxCell id="6IJR6_nJIfUUgxYbHx2m-123" value="" style="rounded=0;whiteSpace=wrap;html=1;rotation=90;strokeWidth=2;fillColor=#0050ef;strokeColor=#001DBC;fontColor=#ffffff;" parent="1" vertex="1">
          <mxGeometry x="580" y="991" width="924.37" height="320" as="geometry" />
        </mxCell>
        <mxCell id="6IJR6_nJIfUUgxYbHx2m-67" value="" style="pointerEvents=1;shadow=0;dashed=0;html=1;strokeColor=none;fillColor=#005F4B;labelPosition=center;verticalLabelPosition=bottom;verticalAlign=top;align=center;outlineConnect=0;shape=mxgraph.veeam2.vpn_server;" parent="1" vertex="1">
          <mxGeometry x="907.5" y="728.5" width="230" height="857.5" as="geometry" />
        </mxCell>
        <mxCell id="6IJR6_nJIfUUgxYbHx2m-124" value="&lt;b&gt;&lt;font style=&quot;font-size: 18px&quot;&gt;RAS Server&lt;/font&gt;&lt;/b&gt;" style="text;html=1;align=center;verticalAlign=middle;resizable=0;points=[];autosize=1;" parent="1" vertex="1">
          <mxGeometry x="983" y="1626.5" width="110" height="20" as="geometry" />
        </mxCell>
        <mxCell id="6IJR6_nJIfUUgxYbHx2m-127" value="" style="endArrow=classic;html=1;strokeWidth=3;fillColor=#0050ef;strokeColor=#001DBC;" parent="1" edge="1">
          <mxGeometry width="50" height="50" relative="1" as="geometry">
            <mxPoint x="1360" y="1198" as="sourcePoint" />
            <mxPoint x="1205" y="1198" as="targetPoint" />
          </mxGeometry>
        </mxCell>
        <mxCell id="6IJR6_nJIfUUgxYbHx2m-128" value="" style="endArrow=classic;html=1;strokeWidth=3;entryX=0;entryY=0.5;entryDx=0;entryDy=0;fillColor=#0050ef;strokeColor=#001DBC;" parent="1" target="6IJR6_nJIfUUgxYbHx2m-95" edge="1">
          <mxGeometry width="50" height="50" relative="1" as="geometry">
            <mxPoint x="1360" y="1070" as="sourcePoint" />
            <mxPoint x="1500" y="1070" as="targetPoint" />
            <Array as="points">
              <mxPoint x="1360" y="1505" />
            </Array>
          </mxGeometry>
        </mxCell>
        <mxCell id="6IJR6_nJIfUUgxYbHx2m-129" value="" style="endArrow=none;html=1;strokeWidth=3;fillColor=#0050ef;strokeColor=#001DBC;" parent="1" edge="1">
          <mxGeometry width="50" height="50" relative="1" as="geometry">
            <mxPoint x="1360" y="1070" as="sourcePoint" />
            <mxPoint x="1360" y="800" as="targetPoint" />
            <Array as="points" />
          </mxGeometry>
        </mxCell>
        <mxCell id="6IJR6_nJIfUUgxYbHx2m-130" value="" style="endArrow=classic;html=1;strokeWidth=3;entryX=0;entryY=0.5;entryDx=0;entryDy=0;fillColor=#0050ef;strokeColor=#001DBC;" parent="1" edge="1">
          <mxGeometry width="50" height="50" relative="1" as="geometry">
            <mxPoint x="1361" y="803" as="sourcePoint" />
            <mxPoint x="1518" y="803" as="targetPoint" />
            <Array as="points" />
          </mxGeometry>
        </mxCell>
        <mxCell id="6IJR6_nJIfUUgxYbHx2m-131" value="" style="endArrow=classic;html=1;strokeWidth=3;entryX=0;entryY=0.5;entryDx=0;entryDy=0;fillColor=#0050ef;strokeColor=#001DBC;" parent="1" edge="1">
          <mxGeometry width="50" height="50" relative="1" as="geometry">
            <mxPoint x="1360" y="1074.29" as="sourcePoint" />
            <mxPoint x="1517" y="1074.29" as="targetPoint" />
            <Array as="points" />
          </mxGeometry>
        </mxCell>
        <mxCell id="6IJR6_nJIfUUgxYbHx2m-132" value="" style="endArrow=classic;html=1;strokeWidth=3;entryX=0;entryY=0.5;entryDx=0;entryDy=0;fillColor=#0050ef;strokeColor=#001DBC;" parent="1" edge="1">
          <mxGeometry width="50" height="50" relative="1" as="geometry">
            <mxPoint x="1356" y="1294.29" as="sourcePoint" />
            <mxPoint x="1513" y="1294.29" as="targetPoint" />
            <Array as="points" />
          </mxGeometry>
        </mxCell>
        <mxCell id="6IJR6_nJIfUUgxYbHx2m-133" value="" style="endArrow=none;html=1;strokeWidth=3;fillColor=#0050ef;strokeColor=#001DBC;" parent="1" edge="1">
          <mxGeometry width="50" height="50" relative="1" as="geometry">
            <mxPoint x="725" y="1530" as="sourcePoint" />
            <mxPoint x="725" y="800" as="targetPoint" />
            <Array as="points" />
          </mxGeometry>
        </mxCell>
        <mxCell id="6IJR6_nJIfUUgxYbHx2m-134" value="" style="endArrow=classic;html=1;strokeWidth=3;fillColor=#0050ef;strokeColor=#001DBC;" parent="1" edge="1">
          <mxGeometry width="50" height="50" relative="1" as="geometry">
            <mxPoint x="725" y="1283" as="sourcePoint" />
            <mxPoint x="569" y="1283" as="targetPoint" />
            <Array as="points" />
          </mxGeometry>
        </mxCell>
        <mxCell id="6IJR6_nJIfUUgxYbHx2m-135" value="" style="endArrow=classic;html=1;strokeWidth=3;fillColor=#0050ef;strokeColor=#001DBC;" parent="1" edge="1">
          <mxGeometry width="50" height="50" relative="1" as="geometry">
            <mxPoint x="725" y="800" as="sourcePoint" />
            <mxPoint x="575" y="800" as="targetPoint" />
            <Array as="points" />
          </mxGeometry>
        </mxCell>
        <mxCell id="6IJR6_nJIfUUgxYbHx2m-136" value="" style="endArrow=classic;html=1;strokeWidth=3;fillColor=#0050ef;strokeColor=#001DBC;" parent="1" edge="1">
          <mxGeometry width="50" height="50" relative="1" as="geometry">
            <mxPoint x="725" y="1040" as="sourcePoint" />
            <mxPoint x="575" y="1040" as="targetPoint" />
            <Array as="points" />
          </mxGeometry>
        </mxCell>
        <mxCell id="6IJR6_nJIfUUgxYbHx2m-137" value="" style="endArrow=classic;html=1;strokeWidth=3;fillColor=#0050ef;strokeColor=#001DBC;" parent="1" edge="1">
          <mxGeometry width="50" height="50" relative="1" as="geometry">
            <mxPoint x="725" y="1530" as="sourcePoint" />
            <mxPoint x="575" y="1530" as="targetPoint" />
            <Array as="points" />
          </mxGeometry>
        </mxCell>
        <mxCell id="6IJR6_nJIfUUgxYbHx2m-138" value="" style="endArrow=classic;html=1;strokeWidth=3;fillColor=#0050ef;strokeColor=#001DBC;" parent="1" edge="1">
          <mxGeometry width="50" height="50" relative="1" as="geometry">
            <mxPoint x="723" y="1156.54" as="sourcePoint" />
            <mxPoint x="883" y="1156.54" as="targetPoint" />
          </mxGeometry>
        </mxCell>
        <mxCell id="6IJR6_nJIfUUgxYbHx2m-139" value="" style="image;html=1;image=img/lib/clip_art/networking/Wireless_Router_N_128x128.png" parent="1" vertex="1">
          <mxGeometry x="-278" y="130.5" width="59" height="80" as="geometry" />
        </mxCell>
        <mxCell id="6IJR6_nJIfUUgxYbHx2m-140" value="" style="image;html=1;image=img/lib/clip_art/networking/Wireless_Router_N_128x128.png" parent="1" vertex="1">
          <mxGeometry x="-277" y="-550.5" width="59" height="80" as="geometry" />
        </mxCell>
        <mxCell id="6IJR6_nJIfUUgxYbHx2m-141" value="" style="image;html=1;image=img/lib/clip_art/networking/Wireless_Router_N_128x128.png" parent="1" vertex="1">
          <mxGeometry x="-278" y="-390.5" width="59" height="80" as="geometry" />
        </mxCell>
        <mxCell id="6IJR6_nJIfUUgxYbHx2m-142" value="" style="image;html=1;image=img/lib/clip_art/networking/Wireless_Router_N_128x128.png" parent="1" vertex="1">
          <mxGeometry x="-275" y="-710.25" width="59" height="80" as="geometry" />
        </mxCell>
        <mxCell id="6IJR6_nJIfUUgxYbHx2m-143" value="" style="image;html=1;image=img/lib/clip_art/networking/Wireless_Router_N_128x128.png" parent="1" vertex="1">
          <mxGeometry x="-276" y="280.5" width="59" height="80" as="geometry" />
        </mxCell>
        <mxCell id="6IJR6_nJIfUUgxYbHx2m-144" value="" style="image;html=1;image=img/lib/clip_art/networking/Wireless_Router_N_128x128.png" parent="1" vertex="1">
          <mxGeometry x="-275" y="408.5" width="59" height="80" as="geometry" />
        </mxCell>
        <mxCell id="6IJR6_nJIfUUgxYbHx2m-145" value="" style="image;html=1;image=img/lib/clip_art/networking/Wireless_Router_N_128x128.png" parent="1" vertex="1">
          <mxGeometry x="-277" y="-219.5" width="59" height="80" as="geometry" />
        </mxCell>
        <mxCell id="6IJR6_nJIfUUgxYbHx2m-146" value="" style="points=[[0.015,0.015,0],[0.985,0.015,0],[0.985,0.985,0],[0.015,0.985,0],[0.25,0,0],[0.5,0,0],[0.75,0,0],[1,0.25,0],[1,0.5,0],[1,0.75,0],[0.75,1,0],[0.5,1,0],[0.25,1,0],[0,0.75,0],[0,0.5,0],[0,0.25,0]];verticalLabelPosition=bottom;html=1;verticalAlign=top;aspect=fixed;align=center;pointerEvents=1;shape=mxgraph.cisco19.rect;prIcon=l3_switch;fillColor=#FAFAFA;strokeColor=#005073;" parent="1" vertex="1">
          <mxGeometry x="440" y="-172" width="125" height="125" as="geometry" />
        </mxCell>
        <mxCell id="6IJR6_nJIfUUgxYbHx2m-147" value="&lt;font style=&quot;font-size: 18px&quot;&gt;&lt;b&gt;Core Switch&lt;/b&gt;&lt;/font&gt;" style="text;html=1;align=center;verticalAlign=middle;resizable=0;points=[];autosize=1;" parent="1" vertex="1">
          <mxGeometry x="426" y="-39" width="120" height="20" as="geometry" />
        </mxCell>
        <mxCell id="6IJR6_nJIfUUgxYbHx2m-148" value="" style="endArrow=none;html=1;strokeWidth=3;fillColor=#a0522d;strokeColor=#6D1F00;" parent="1" edge="1">
          <mxGeometry width="50" height="50" relative="1" as="geometry">
            <mxPoint x="-80" y="465.35" as="sourcePoint" />
            <mxPoint x="-78" y="-654.65" as="targetPoint" />
          </mxGeometry>
        </mxCell>
        <mxCell id="6IJR6_nJIfUUgxYbHx2m-157" value="" style="verticalLabelPosition=bottom;html=1;fillColor=#A153A0;strokeColor=#ffffff;verticalAlign=top;align=center;points=[[0,0.5,0],[0.125,0.25,0],[0.25,0,0],[0.5,0,0],[0.75,0,0],[0.875,0.25,0],[1,0.5,0],[0.875,0.75,0],[0.75,1,0],[0.5,1,0],[0.125,0.75,0]];pointerEvents=1;shape=mxgraph.cisco_safe.compositeIcon;bgIcon=mxgraph.cisco_safe.design.blank_device;resIcon=mxgraph.cisco_safe.design.vwlan_controller;" parent="1" vertex="1">
          <mxGeometry x="112.37" y="-680" width="80" height="115" as="geometry" />
        </mxCell>
        <mxCell id="6IJR6_nJIfUUgxYbHx2m-159" value="" style="endArrow=none;html=1;strokeWidth=3;fillColor=#a0522d;strokeColor=#6D1F00;" parent="1" edge="1">
          <mxGeometry width="50" height="50" relative="1" as="geometry">
            <mxPoint x="280" y="-109" as="sourcePoint" />
            <mxPoint x="-80" y="-109" as="targetPoint" />
          </mxGeometry>
        </mxCell>
        <mxCell id="6IJR6_nJIfUUgxYbHx2m-160" value="" style="endArrow=classic;html=1;strokeWidth=3;entryX=0;entryY=0.5;entryDx=0;entryDy=0;entryPerimeter=0;fillColor=#a20025;strokeColor=#6F0000;" parent="1" target="6IJR6_nJIfUUgxYbHx2m-146" edge="1">
          <mxGeometry width="50" height="50" relative="1" as="geometry">
            <mxPoint x="280" y="-109" as="sourcePoint" />
            <mxPoint x="336" y="-108" as="targetPoint" />
            <Array as="points">
              <mxPoint x="360" y="-109" />
            </Array>
          </mxGeometry>
        </mxCell>
        <mxCell id="6IJR6_nJIfUUgxYbHx2m-161" value="&lt;font style=&quot;font-size: 18px&quot;&gt;&lt;b&gt;Wireless Controller&lt;/b&gt;&lt;/font&gt;" style="text;html=1;align=center;verticalAlign=middle;resizable=0;points=[];autosize=1;" parent="1" vertex="1">
          <mxGeometry x="62.370000000000005" y="-709" width="180" height="20" as="geometry" />
        </mxCell>
        <mxCell id="6IJR6_nJIfUUgxYbHx2m-162" value="" style="endArrow=classic;html=1;strokeWidth=3;fillColor=#a0522d;strokeColor=#6D1F00;entryX=0;entryY=0.25;entryDx=0;entryDy=0;entryPerimeter=0;exitX=0.5;exitY=1;exitDx=0;exitDy=0;exitPerimeter=0;" parent="1" source="6IJR6_nJIfUUgxYbHx2m-157" edge="1">
          <mxGeometry width="50" height="50" relative="1" as="geometry">
            <mxPoint x="330" y="-358" as="sourcePoint" />
            <mxPoint x="441" y="-140.75" as="targetPoint" />
            <Array as="points">
              <mxPoint x="152" y="-141" />
            </Array>
          </mxGeometry>
        </mxCell>
        <mxCell id="6IJR6_nJIfUUgxYbHx2m-167" value="" style="endArrow=none;html=1;strokeWidth=3;fillColor=#a0522d;strokeColor=#6D1F00;" parent="1" edge="1">
          <mxGeometry width="50" height="50" relative="1" as="geometry">
            <mxPoint x="-217" y="-654.65" as="sourcePoint" />
            <mxPoint x="-77" y="-654.65" as="targetPoint" />
          </mxGeometry>
        </mxCell>
        <mxCell id="6IJR6_nJIfUUgxYbHx2m-168" value="" style="endArrow=none;html=1;strokeWidth=3;fillColor=#a0522d;strokeColor=#6D1F00;" parent="1" edge="1">
          <mxGeometry width="50" height="50" relative="1" as="geometry">
            <mxPoint x="-218" y="335.35" as="sourcePoint" />
            <mxPoint x="-78" y="335.35" as="targetPoint" />
          </mxGeometry>
        </mxCell>
        <mxCell id="6IJR6_nJIfUUgxYbHx2m-169" value="" style="endArrow=none;html=1;strokeWidth=3;fillColor=#a0522d;strokeColor=#6D1F00;" parent="1" edge="1">
          <mxGeometry width="50" height="50" relative="1" as="geometry">
            <mxPoint x="-219" y="184.64" as="sourcePoint" />
            <mxPoint x="-79" y="184.64" as="targetPoint" />
          </mxGeometry>
        </mxCell>
        <mxCell id="6IJR6_nJIfUUgxYbHx2m-170" value="" style="endArrow=none;html=1;strokeWidth=3;fillColor=#a0522d;strokeColor=#6D1F00;" parent="1" edge="1">
          <mxGeometry width="50" height="50" relative="1" as="geometry">
            <mxPoint x="-218" y="15.35" as="sourcePoint" />
            <mxPoint x="-78" y="15.35" as="targetPoint" />
          </mxGeometry>
        </mxCell>
        <mxCell id="6IJR6_nJIfUUgxYbHx2m-171" value="" style="endArrow=none;html=1;strokeWidth=3;fillColor=#a0522d;strokeColor=#6D1F00;" parent="1" edge="1">
          <mxGeometry width="50" height="50" relative="1" as="geometry">
            <mxPoint x="-218" y="-164.65" as="sourcePoint" />
            <mxPoint x="-78" y="-164.65" as="targetPoint" />
          </mxGeometry>
        </mxCell>
        <mxCell id="6IJR6_nJIfUUgxYbHx2m-172" value="" style="endArrow=none;html=1;strokeWidth=3;fillColor=#a0522d;strokeColor=#6D1F00;" parent="1" edge="1">
          <mxGeometry width="50" height="50" relative="1" as="geometry">
            <mxPoint x="-220" y="-336.08" as="sourcePoint" />
            <mxPoint x="-80" y="-336.08" as="targetPoint" />
          </mxGeometry>
        </mxCell>
        <mxCell id="6IJR6_nJIfUUgxYbHx2m-173" value="" style="endArrow=none;html=1;strokeWidth=3;fillColor=#a0522d;strokeColor=#6D1F00;" parent="1" edge="1">
          <mxGeometry width="50" height="50" relative="1" as="geometry">
            <mxPoint x="-218.5" y="-494.65" as="sourcePoint" />
            <mxPoint x="-78.5" y="-494.65" as="targetPoint" />
          </mxGeometry>
        </mxCell>
        <mxCell id="6IJR6_nJIfUUgxYbHx2m-174" value="" style="endArrow=none;html=1;strokeWidth=3;fillColor=#a0522d;strokeColor=#6D1F00;" parent="1" edge="1">
          <mxGeometry width="50" height="50" relative="1" as="geometry">
            <mxPoint x="-216" y="464.64000000000004" as="sourcePoint" />
            <mxPoint x="-78" y="464.57000000000005" as="targetPoint" />
          </mxGeometry>
        </mxCell>
        <mxCell id="6IJR6_nJIfUUgxYbHx2m-175" value="" style="points=[[0.015,0.015,0],[0.985,0.015,0],[0.985,0.985,0],[0.015,0.985,0],[0.25,0,0],[0.5,0,0],[0.75,0,0],[1,0.25,0],[1,0.5,0],[1,0.75,0],[0.75,1,0],[0.5,1,0],[0.25,1,0],[0,0.75,0],[0,0.5,0],[0,0.25,0]];verticalLabelPosition=bottom;html=1;verticalAlign=top;aspect=fixed;align=center;pointerEvents=1;shape=mxgraph.cisco19.rect;prIcon=ips_ids;fillColor=#FAFAFA;strokeColor=#005073;" parent="1" vertex="1">
          <mxGeometry x="446" y="-442" width="120" height="93.75" as="geometry" />
        </mxCell>
        <mxCell id="6IJR6_nJIfUUgxYbHx2m-177" value="" style="verticalLabelPosition=bottom;html=1;fillColor=#A153A0;strokeColor=#ffffff;verticalAlign=top;align=center;points=[[0,0.5,0],[0.125,0.25,0],[0.25,0,0],[0.5,0,0],[0.75,0,0],[0.875,0.25,0],[1,0.5,0],[0.875,0.75,0],[0.75,1,0],[0.5,1,0],[0.125,0.75,0]];pointerEvents=1;shape=mxgraph.cisco_safe.compositeIcon;bgIcon=mxgraph.cisco_safe.design.blank_device;resIcon=mxgraph.cisco_safe.design.catalyst_data_center_switch;" parent="1" vertex="1">
          <mxGeometry x="1101" y="-122" width="120" height="75" as="geometry" />
        </mxCell>
        <mxCell id="6IJR6_nJIfUUgxYbHx2m-178" value="&lt;font style=&quot;font-size: 18px&quot;&gt;&lt;b&gt;Server Farm Switch&lt;/b&gt;&lt;/font&gt;" style="text;html=1;align=center;verticalAlign=middle;resizable=0;points=[];autosize=1;" parent="1" vertex="1">
          <mxGeometry x="1084.37" y="-149" width="180" height="20" as="geometry" />
        </mxCell>
        <mxCell id="6IJR6_nJIfUUgxYbHx2m-216" value="&lt;font style=&quot;font-size: 18px&quot;&gt;IPS&lt;/font&gt;" style="text;html=1;align=center;verticalAlign=middle;resizable=0;points=[];autosize=1;fontStyle=1" parent="1" vertex="1">
          <mxGeometry x="943" y="-407.5" width="40" height="20" as="geometry" />
        </mxCell>
        <mxCell id="6IJR6_nJIfUUgxYbHx2m-218" value="" style="aspect=fixed;perimeter=ellipsePerimeter;html=1;align=center;shadow=0;dashed=0;fontColor=#4277BB;labelBackgroundColor=#ffffff;fontSize=12;spacingTop=3;image;image=img/lib/ibm/vpc/Internet.svg;" parent="1" vertex="1">
          <mxGeometry x="691" y="-1230" width="390" height="390" as="geometry" />
        </mxCell>
        <mxCell id="6IJR6_nJIfUUgxYbHx2m-222" value="" style="endArrow=none;html=1;strokeWidth=3;entryX=1;entryY=0.5;entryDx=0;entryDy=0;entryPerimeter=0;fillColor=#76608a;strokeColor=#432D57;" parent="1" target="6IJR6_nJIfUUgxYbHx2m-177" edge="1">
          <mxGeometry width="50" height="50" relative="1" as="geometry">
            <mxPoint x="1690" y="-84" as="sourcePoint" />
            <mxPoint x="1241" y="-140.5" as="targetPoint" />
          </mxGeometry>
        </mxCell>
        <mxCell id="6IJR6_nJIfUUgxYbHx2m-223" value="" style="endArrow=classic;html=1;strokeWidth=3;entryX=1;entryY=0.75;entryDx=0;entryDy=0;entryPerimeter=0;fillColor=#76608a;strokeColor=#432D57;" parent="1" source="6IJR6_nJIfUUgxYbHx2m-177" target="6IJR6_nJIfUUgxYbHx2m-146" edge="1">
          <mxGeometry width="50" height="50" relative="1" as="geometry">
            <mxPoint x="940" y="-100" as="sourcePoint" />
            <mxPoint x="990" y="-144" as="targetPoint" />
            <Array as="points">
              <mxPoint x="1080" y="-80" />
              <mxPoint x="950" y="-78" />
              <mxPoint x="830" y="-78" />
            </Array>
          </mxGeometry>
        </mxCell>
        <mxCell id="6IJR6_nJIfUUgxYbHx2m-224" value="" style="verticalLabelPosition=bottom;html=1;fillColor=#282828;strokeColor=none;verticalAlign=top;pointerEvents=1;align=center;shape=mxgraph.cisco_safe.security_icons.ids;" parent="1" vertex="1">
          <mxGeometry x="770" y="-485.5" width="190" height="115.5" as="geometry" />
        </mxCell>
        <mxCell id="6IJR6_nJIfUUgxYbHx2m-225" value="&lt;b&gt;&lt;font style=&quot;font-size: 18px&quot;&gt;IDS&lt;/font&gt;&lt;/b&gt;" style="text;html=1;align=center;verticalAlign=middle;resizable=0;points=[];autosize=1;" parent="1" vertex="1">
          <mxGeometry x="435" y="-337" width="50" height="20" as="geometry" />
        </mxCell>
        <mxCell id="6IJR6_nJIfUUgxYbHx2m-227" value="&lt;b&gt;&lt;font style=&quot;font-size: 18px&quot;&gt;Internet&lt;/font&gt;&lt;/b&gt;" style="text;html=1;align=center;verticalAlign=middle;resizable=0;points=[];autosize=1;" parent="1" vertex="1">
          <mxGeometry x="1090" y="-1000" width="80" height="20" as="geometry" />
        </mxCell>
        <mxCell id="6IJR6_nJIfUUgxYbHx2m-231" value="" style="endArrow=classic;startArrow=classic;html=1;strokeWidth=3;exitX=0.5;exitY=0;exitDx=0;exitDy=0;exitPerimeter=0;fillColor=#e3c800;strokeColor=#B09500;" parent="1" source="6IJR6_nJIfUUgxYbHx2m-15" edge="1">
          <mxGeometry width="50" height="50" relative="1" as="geometry">
            <mxPoint x="885.5" y="-780" as="sourcePoint" />
            <mxPoint x="885.5" y="-850" as="targetPoint" />
          </mxGeometry>
        </mxCell>
        <mxCell id="6IJR6_nJIfUUgxYbHx2m-233" value="" style="endArrow=classic;startArrow=classic;html=1;strokeWidth=3;entryX=0.664;entryY=0.923;entryDx=0;entryDy=0;entryPerimeter=0;fillColor=#fa6800;strokeColor=#C73500;" parent="1" target="6IJR6_nJIfUUgxYbHx2m-218" edge="1">
          <mxGeometry width="50" height="50" relative="1" as="geometry">
            <mxPoint x="910" y="-720" as="sourcePoint" />
            <mxPoint x="910" y="-840" as="targetPoint" />
          </mxGeometry>
        </mxCell>
        <mxCell id="6IJR6_nJIfUUgxYbHx2m-235" value="" style="endArrow=classic;startArrow=classic;html=1;strokeWidth=3;exitX=0.356;exitY=0.923;exitDx=0;exitDy=0;exitPerimeter=0;fillColor=#f0a30a;strokeColor=#BD7000;" parent="1" source="6IJR6_nJIfUUgxYbHx2m-218" edge="1">
          <mxGeometry width="50" height="50" relative="1" as="geometry">
            <mxPoint x="780.04" y="-820" as="sourcePoint" />
            <mxPoint x="860" y="-720" as="targetPoint" />
          </mxGeometry>
        </mxCell>
        <mxCell id="6IJR6_nJIfUUgxYbHx2m-236" value="&lt;font style=&quot;font-size: 18px&quot;&gt;&lt;b&gt;Aggregation Router&lt;/b&gt;&lt;/font&gt;" style="text;html=1;align=center;verticalAlign=middle;resizable=0;points=[];autosize=1;" parent="1" vertex="1">
          <mxGeometry x="795" y="-640" width="180" height="20" as="geometry" />
        </mxCell>
        <mxCell id="6IJR6_nJIfUUgxYbHx2m-237" value="" style="image;html=1;image=img/lib/clip_art/networking/Router_Icon_128x128.png" parent="1" vertex="1">
          <mxGeometry x="1010" y="-420" width="80" height="80" as="geometry" />
        </mxCell>
        <mxCell id="6IJR6_nJIfUUgxYbHx2m-238" value="" style="endArrow=classic;startArrow=classic;html=1;strokeWidth=3;entryX=0;entryY=0.5;entryDx=0;entryDy=0;entryPerimeter=0;" parent="1" source="6IJR6_nJIfUUgxYbHx2m-26" target="6IJR6_nJIfUUgxYbHx2m-15" edge="1">
          <mxGeometry width="50" height="50" relative="1" as="geometry">
            <mxPoint x="710.5" y="-600" as="sourcePoint" />
            <mxPoint x="710.5" y="-670" as="targetPoint" />
            <Array as="points">
              <mxPoint x="711" y="-680" />
            </Array>
          </mxGeometry>
        </mxCell>
        <mxCell id="6IJR6_nJIfUUgxYbHx2m-239" value="" style="endArrow=classic;startArrow=classic;html=1;strokeWidth=3;" parent="1" target="6IJR6_nJIfUUgxYbHx2m-15" edge="1">
          <mxGeometry width="50" height="50" relative="1" as="geometry">
            <mxPoint x="1050.0046153846151" y="-604" as="sourcePoint" />
            <mxPoint x="1159.62" y="-688" as="targetPoint" />
            <Array as="points">
              <mxPoint x="1050.62" y="-684" />
            </Array>
          </mxGeometry>
        </mxCell>
        <mxCell id="6IJR6_nJIfUUgxYbHx2m-240" value="" style="endArrow=classic;startArrow=classic;html=1;strokeWidth=3;exitX=0.175;exitY=0.425;exitDx=0;exitDy=0;exitPerimeter=0;" parent="1" source="6IJR6_nJIfUUgxYbHx2m-224" edge="1">
          <mxGeometry width="50" height="50" relative="1" as="geometry">
            <mxPoint x="780" y="-434" as="sourcePoint" />
            <mxPoint x="709.5" y="-500" as="targetPoint" />
            <Array as="points">
              <mxPoint x="710" y="-434" />
            </Array>
          </mxGeometry>
        </mxCell>
        <mxCell id="6IJR6_nJIfUUgxYbHx2m-241" value="" style="endArrow=classic;startArrow=classic;html=1;strokeWidth=3;exitX=1.01;exitY=0.388;exitDx=0;exitDy=0;exitPerimeter=0;" parent="1" source="6IJR6_nJIfUUgxYbHx2m-224" edge="1">
          <mxGeometry width="50" height="50" relative="1" as="geometry">
            <mxPoint x="1013" y="-438" as="sourcePoint" />
            <mxPoint x="1050" y="-504" as="targetPoint" />
            <Array as="points">
              <mxPoint x="1050.5" y="-438" />
            </Array>
          </mxGeometry>
        </mxCell>
        <mxCell id="6IJR6_nJIfUUgxYbHx2m-242" value="" style="endArrow=classic;startArrow=classic;html=1;strokeWidth=3;exitX=0.347;exitY=0.654;exitDx=0;exitDy=0;exitPerimeter=0;entryX=0.897;entryY=0.586;entryDx=0;entryDy=0;entryPerimeter=0;" parent="1" source="6IJR6_nJIfUUgxYbHx2m-224" target="6IJR6_nJIfUUgxYbHx2m-224" edge="1">
          <mxGeometry width="50" height="50" relative="1" as="geometry">
            <mxPoint x="1300" y="-493" as="sourcePoint" />
            <mxPoint x="1520" y="-420" as="targetPoint" />
            <Array as="points">
              <mxPoint x="836" y="-360" />
              <mxPoint x="940" y="-360" />
            </Array>
          </mxGeometry>
        </mxCell>
        <mxCell id="6IJR6_nJIfUUgxYbHx2m-243" value="" style="endArrow=classic;startArrow=classic;html=1;strokeWidth=3;fillColor=#6a00ff;strokeColor=#3700CC;exitX=-0.001;exitY=0.528;exitDx=0;exitDy=0;exitPerimeter=0;" parent="1" source="6IJR6_nJIfUUgxYbHx2m-123" edge="1">
          <mxGeometry width="50" height="50" relative="1" as="geometry">
            <mxPoint x="1036" y="680" as="sourcePoint" />
            <mxPoint x="890" y="-362" as="targetPoint" />
            <Array as="points">
              <mxPoint x="1036" y="-72" />
              <mxPoint x="1036" y="-242" />
              <mxPoint x="890" y="-242" />
            </Array>
          </mxGeometry>
        </mxCell>
        <mxCell id="6IJR6_nJIfUUgxYbHx2m-244" value="" style="endArrow=classic;startArrow=classic;html=1;strokeWidth=3;exitX=1;exitY=0.5;exitDx=0;exitDy=0;fillColor=#008a00;strokeColor=#005700;" parent="1" source="6IJR6_nJIfUUgxYbHx2m-13" edge="1">
          <mxGeometry width="50" height="50" relative="1" as="geometry">
            <mxPoint x="750" y="-340" as="sourcePoint" />
            <mxPoint x="860" y="-360" as="targetPoint" />
            <Array as="points">
              <mxPoint x="860" y="-320" />
            </Array>
          </mxGeometry>
        </mxCell>
        <mxCell id="6IJR6_nJIfUUgxYbHx2m-245" value="" style="endArrow=classic;startArrow=classic;html=1;strokeWidth=3;fillColor=#008a00;strokeColor=#005700;" parent="1" edge="1">
          <mxGeometry width="50" height="50" relative="1" as="geometry">
            <mxPoint x="925" y="-359.5" as="sourcePoint" />
            <mxPoint x="1060" y="-360" as="targetPoint" />
            <Array as="points">
              <mxPoint x="925" y="-322.5" />
              <mxPoint x="1045" y="-322.5" />
              <mxPoint x="1060" y="-322.5" />
            </Array>
          </mxGeometry>
        </mxCell>
        <mxCell id="6IJR6_nJIfUUgxYbHx2m-246" value="" style="endArrow=classic;startArrow=classic;html=1;strokeWidth=3;entryX=0.613;entryY=0.875;entryDx=0;entryDy=0;entryPerimeter=0;fillColor=#008a00;strokeColor=#005700;exitX=1.01;exitY=0.147;exitDx=0;exitDy=0;exitPerimeter=0;" parent="1" source="6IJR6_nJIfUUgxYbHx2m-146" target="6IJR6_nJIfUUgxYbHx2m-13" edge="1">
          <mxGeometry width="50" height="50" relative="1" as="geometry">
            <mxPoint x="567" y="-130" as="sourcePoint" />
            <mxPoint x="650" y="-130" as="targetPoint" />
            <Array as="points">
              <mxPoint x="720" y="-150" />
            </Array>
          </mxGeometry>
        </mxCell>
        <mxCell id="6IJR6_nJIfUUgxYbHx2m-248" value="&lt;font style=&quot;font-size: 18px&quot;&gt;&lt;b&gt;Internet Router&lt;/b&gt;&lt;/font&gt;" style="text;html=1;align=center;verticalAlign=middle;resizable=0;points=[];autosize=1;" parent="1" vertex="1">
          <mxGeometry x="557.37" y="-291.5" width="140" height="20" as="geometry" />
        </mxCell>
        <mxCell id="6IJR6_nJIfUUgxYbHx2m-214" value="&lt;font style=&quot;font-size: 18px&quot;&gt;&lt;b&gt;Internet Router&lt;/b&gt;&lt;/font&gt;" style="text;html=1;align=center;verticalAlign=middle;resizable=0;points=[];autosize=1;" parent="1" vertex="1">
          <mxGeometry x="1101" y="-387.5" width="140" height="20" as="geometry" />
        </mxCell>
        <mxCell id="6IJR6_nJIfUUgxYbHx2m-249" value="" style="endArrow=classic;startArrow=classic;html=1;strokeWidth=3;fillColor=#008a00;strokeColor=#005700;" parent="1" edge="1">
          <mxGeometry width="50" height="50" relative="1" as="geometry">
            <mxPoint x="566" y="-116" as="sourcePoint" />
            <mxPoint x="1000" y="-317" as="targetPoint" />
            <Array as="points">
              <mxPoint x="1000" y="-116" />
              <mxPoint x="1000" y="-187" />
            </Array>
          </mxGeometry>
        </mxCell>
        <mxCell id="6IJR6_nJIfUUgxYbHx2m-250" value="&lt;b&gt;&lt;font style=&quot;font-size: 18px&quot;&gt;Access Point&lt;/font&gt;&lt;/b&gt;" style="text;html=1;align=center;verticalAlign=middle;resizable=0;points=[];autosize=1;" parent="1" vertex="1">
          <mxGeometry x="-219" y="-750" width="130" height="20" as="geometry" />
        </mxCell>
        <mxCell id="6IJR6_nJIfUUgxYbHx2m-255" value="" style="endArrow=classic;startArrow=classic;html=1;strokeWidth=3;exitX=0.5;exitY=1;exitDx=0;exitDy=0;exitPerimeter=0;" parent="1" source="6IJR6_nJIfUUgxYbHx2m-175" edge="1">
          <mxGeometry width="50" height="50" relative="1" as="geometry">
            <mxPoint x="505.28999999999996" y="-246.25" as="sourcePoint" />
            <mxPoint x="505.28999999999996" y="-169.25" as="targetPoint" />
          </mxGeometry>
        </mxCell>
        <mxCell id="6IJR6_nJIfUUgxYbHx2m-256" value="" style="points=[[0.015,0.015,0],[0.985,0.015,0],[0.985,0.985,0],[0.015,0.985,0],[0.25,0,0],[0.5,0,0],[0.75,0,0],[1,0.25,0],[1,0.5,0],[1,0.75,0],[0.75,1,0],[0.5,1,0],[0.25,1,0],[0,0.75,0],[0,0.5,0],[0,0.25,0]];verticalLabelPosition=bottom;html=1;verticalAlign=top;aspect=fixed;align=center;pointerEvents=1;shape=mxgraph.cisco19.dns_server;fillColor=#005073;strokeColor=none;" parent="1" vertex="1">
          <mxGeometry x="1805" y="-583" width="53.63" height="97.5" as="geometry" />
        </mxCell>
        <mxCell id="6IJR6_nJIfUUgxYbHx2m-257" value="" style="verticalLabelPosition=bottom;aspect=fixed;html=1;verticalAlign=top;strokeColor=none;align=center;outlineConnect=0;shape=mxgraph.citrix.cache_server;" parent="1" vertex="1">
          <mxGeometry x="1787.63" y="-719" width="71" height="97.5" as="geometry" />
        </mxCell>
        <mxCell id="6IJR6_nJIfUUgxYbHx2m-258" value="&lt;b&gt;&lt;font style=&quot;font-size: 18px&quot;&gt;Cache Server&lt;/font&gt;&lt;/b&gt;" style="text;html=1;align=center;verticalAlign=middle;resizable=0;points=[];autosize=1;" parent="1" vertex="1">
          <mxGeometry x="1768" y="-615" width="130" height="20" as="geometry" />
        </mxCell>
        <mxCell id="6IJR6_nJIfUUgxYbHx2m-259" value="&lt;font style=&quot;font-size: 18px&quot;&gt;&lt;b&gt;DNS Server&lt;/b&gt;&lt;/font&gt;" style="text;html=1;align=center;verticalAlign=middle;resizable=0;points=[];autosize=1;" parent="1" vertex="1">
          <mxGeometry x="1787.63" y="-469" width="110" height="20" as="geometry" />
        </mxCell>
        <mxCell id="6IJR6_nJIfUUgxYbHx2m-261" value="&lt;b&gt;&lt;font style=&quot;font-size: 18px&quot;&gt;WWW Server&lt;/font&gt;&lt;/b&gt;" style="text;html=1;align=center;verticalAlign=middle;resizable=0;points=[];autosize=1;" parent="1" vertex="1">
          <mxGeometry x="1779" y="-319" width="130" height="20" as="geometry" />
        </mxCell>
        <mxCell id="6IJR6_nJIfUUgxYbHx2m-262" value="" style="aspect=fixed;perimeter=ellipsePerimeter;html=1;align=center;shadow=0;dashed=0;spacingTop=3;image;image=img/lib/active_directory/web_server.svg;strokeWidth=2;" parent="1" vertex="1">
          <mxGeometry x="1800.63" y="-442" width="84" height="105" as="geometry" />
        </mxCell>
        <mxCell id="6IJR6_nJIfUUgxYbHx2m-263" value="" style="verticalLabelPosition=bottom;aspect=fixed;html=1;verticalAlign=top;strokeColor=none;align=center;outlineConnect=0;shape=mxgraph.citrix.smtp_server;" parent="1" vertex="1">
          <mxGeometry x="1800.63" y="-289" width="76" height="92" as="geometry" />
        </mxCell>
        <mxCell id="6IJR6_nJIfUUgxYbHx2m-264" value="&lt;b&gt;&lt;font style=&quot;font-size: 18px&quot;&gt;E-Mail Server&lt;/font&gt;&lt;/b&gt;" style="text;html=1;align=center;verticalAlign=middle;resizable=0;points=[];autosize=1;" parent="1" vertex="1">
          <mxGeometry x="1769" y="-179" width="130" height="20" as="geometry" />
        </mxCell>
        <mxCell id="6IJR6_nJIfUUgxYbHx2m-265" value="" style="aspect=fixed;perimeter=ellipsePerimeter;html=1;align=center;shadow=0;dashed=0;spacingTop=3;image;image=img/lib/active_directory/database_server.svg;strokeWidth=2;" parent="1" vertex="1">
          <mxGeometry x="1833" y="221" width="82" height="100" as="geometry" />
        </mxCell>
        <mxCell id="6IJR6_nJIfUUgxYbHx2m-266" value="&lt;b&gt;&lt;font style=&quot;font-size: 18px&quot;&gt;Database Server&lt;/font&gt;&lt;/b&gt;" style="text;html=1;align=center;verticalAlign=middle;resizable=0;points=[];autosize=1;" parent="1" vertex="1">
          <mxGeometry x="1787" y="331" width="160" height="20" as="geometry" />
        </mxCell>
        <mxCell id="6IJR6_nJIfUUgxYbHx2m-267" value="" style="aspect=fixed;perimeter=ellipsePerimeter;html=1;align=center;shadow=0;dashed=0;spacingTop=3;image;image=img/lib/active_directory/web_server.svg;strokeWidth=2;" parent="1" vertex="1">
          <mxGeometry x="1825" y="361" width="84" height="105" as="geometry" />
        </mxCell>
        <mxCell id="6IJR6_nJIfUUgxYbHx2m-268" value="&lt;b&gt;&lt;font style=&quot;font-size: 18px&quot;&gt;Staging Server&lt;/font&gt;&lt;/b&gt;" style="text;html=1;align=center;verticalAlign=middle;resizable=0;points=[];autosize=1;" parent="1" vertex="1">
          <mxGeometry x="1789" y="471" width="140" height="20" as="geometry" />
        </mxCell>
        <mxCell id="6IJR6_nJIfUUgxYbHx2m-269" value="" style="verticalLabelPosition=bottom;aspect=fixed;html=1;verticalAlign=top;strokeColor=none;align=center;outlineConnect=0;shape=mxgraph.citrix.radius_server;" parent="1" vertex="1">
          <mxGeometry x="1806.25" y="-149" width="75.5" height="91" as="geometry" />
        </mxCell>
        <mxCell id="6IJR6_nJIfUUgxYbHx2m-270" value="" style="dashed=0;outlineConnect=0;html=1;align=center;labelPosition=center;verticalLabelPosition=bottom;verticalAlign=top;shape=mxgraph.webicons.apache;gradientColor=#DFDEDE;strokeWidth=2;" parent="1" vertex="1">
          <mxGeometry x="2158.5" y="-639" width="61.5" height="74" as="geometry" />
        </mxCell>
        <mxCell id="6IJR6_nJIfUUgxYbHx2m-271" value="" style="strokeColor=#dddddd;shadow=1;strokeWidth=1;rounded=1;absoluteArcSize=1;arcSize=2;" parent="1" vertex="1">
          <mxGeometry x="2155" y="-463" width="120" height="44" as="geometry" />
        </mxCell>
        <mxCell id="6IJR6_nJIfUUgxYbHx2m-272" value="Squid Proxy" style="dashed=0;connectable=0;html=1;fillColor=#757575;strokeColor=none;shape=mxgraph.gcp2.squid_proxy;part=1;labelPosition=right;verticalLabelPosition=middle;align=left;verticalAlign=middle;spacingLeft=5;fontSize=12;" parent="6IJR6_nJIfUUgxYbHx2m-271" vertex="1">
          <mxGeometry y="0.5" width="32" height="32" relative="1" as="geometry">
            <mxPoint x="5" y="-16" as="offset" />
          </mxGeometry>
        </mxCell>
        <mxCell id="6IJR6_nJIfUUgxYbHx2m-273" value="&lt;b&gt;&lt;font style=&quot;font-size: 18px&quot;&gt;Radius/AAA&amp;nbsp; Server&lt;/font&gt;&lt;/b&gt;" style="text;html=1;align=center;verticalAlign=middle;resizable=0;points=[];autosize=1;" parent="1" vertex="1">
          <mxGeometry x="1762" y="-49" width="190" height="20" as="geometry" />
        </mxCell>
        <mxCell id="6IJR6_nJIfUUgxYbHx2m-274" value="" style="verticalLabelPosition=bottom;html=1;verticalAlign=top;align=center;strokeColor=none;fillColor=#00BEF2;shape=mxgraph.azure.mysql_database;" parent="1" vertex="1">
          <mxGeometry x="2189" y="-260" width="50" height="56" as="geometry" />
        </mxCell>
        <mxCell id="6IJR6_nJIfUUgxYbHx2m-276" value="" style="points=[[0.5,0,0],[0.765,0.48,0],[0.99,0.98,0],[0.5,1,0],[0.01,0.98,0],[0.235,0.48,0]];verticalLabelPosition=bottom;html=1;verticalAlign=top;aspect=fixed;align=center;pointerEvents=1;shape=mxgraph.cisco19.ldap;fillColor=#005073;strokeColor=none;" parent="1" vertex="1">
          <mxGeometry x="1805" y="-19" width="82.35" height="70" as="geometry" />
        </mxCell>
        <mxCell id="6IJR6_nJIfUUgxYbHx2m-277" value="&lt;b&gt;&lt;font style=&quot;font-size: 18px&quot;&gt;LDAP Server&lt;/font&gt;&lt;/b&gt;" style="text;html=1;align=center;verticalAlign=middle;resizable=0;points=[];autosize=1;" parent="1" vertex="1">
          <mxGeometry x="1789" y="61" width="130" height="20" as="geometry" />
        </mxCell>
        <mxCell id="6IJR6_nJIfUUgxYbHx2m-278" value="" style="aspect=fixed;perimeter=ellipsePerimeter;html=1;align=center;shadow=0;dashed=0;spacingTop=3;image;image=img/lib/active_directory/generic_server.svg;strokeWidth=2;" parent="1" vertex="1">
          <mxGeometry x="1834.8999999999999" y="91" width="52.45" height="93.66" as="geometry" />
        </mxCell>
        <mxCell id="6IJR6_nJIfUUgxYbHx2m-279" value="&lt;b&gt;&lt;font style=&quot;font-size: 18px&quot;&gt;NMS Server&lt;/font&gt;&lt;/b&gt;" style="text;html=1;align=center;verticalAlign=middle;resizable=0;points=[];autosize=1;" parent="1" vertex="1">
          <mxGeometry x="1795" y="191" width="120" height="20" as="geometry" />
        </mxCell>
        <mxCell id="6IJR6_nJIfUUgxYbHx2m-282" value="" style="endArrow=classic;startArrow=classic;html=1;strokeWidth=3;exitX=0.057;exitY=0.652;exitDx=0;exitDy=0;exitPerimeter=0;entryX=0.104;entryY=0.513;entryDx=0;entryDy=0;entryPerimeter=0;" parent="1" source="6IJR6_nJIfUUgxYbHx2m-263" target="6IJR6_nJIfUUgxYbHx2m-257" edge="1">
          <mxGeometry width="50" height="50" relative="1" as="geometry">
            <mxPoint x="1795" y="-229" as="sourcePoint" />
            <mxPoint x="1785" y="-669" as="targetPoint" />
            <Array as="points">
              <mxPoint x="1735" y="-229" />
              <mxPoint x="1735" y="-669" />
            </Array>
          </mxGeometry>
        </mxCell>
        <mxCell id="6IJR6_nJIfUUgxYbHx2m-285" value="" style="endArrow=classic;html=1;strokeWidth=3;" parent="1" edge="1">
          <mxGeometry width="50" height="50" relative="1" as="geometry">
            <mxPoint x="1736.25" y="-534.96" as="sourcePoint" />
            <mxPoint x="1806.25" y="-534.96" as="targetPoint" />
          </mxGeometry>
        </mxCell>
        <mxCell id="6IJR6_nJIfUUgxYbHx2m-286" value="" style="endArrow=classic;html=1;strokeWidth=3;entryX=0.121;entryY=0.857;entryDx=0;entryDy=0;entryPerimeter=0;" parent="1" target="6IJR6_nJIfUUgxYbHx2m-276" edge="1">
          <mxGeometry width="50" height="50" relative="1" as="geometry">
            <mxPoint x="1735" y="40.99999999999994" as="sourcePoint" />
            <mxPoint x="1805" y="41" as="targetPoint" />
          </mxGeometry>
        </mxCell>
        <mxCell id="6IJR6_nJIfUUgxYbHx2m-287" value="" style="endArrow=classic;html=1;strokeWidth=3;" parent="1" edge="1">
          <mxGeometry width="50" height="50" relative="1" as="geometry">
            <mxPoint x="1735" y="-375.96000000000004" as="sourcePoint" />
            <mxPoint x="1805" y="-375.96000000000004" as="targetPoint" />
            <Array as="points">
              <mxPoint x="1753.75" y="-376" />
            </Array>
          </mxGeometry>
        </mxCell>
        <mxCell id="6IJR6_nJIfUUgxYbHx2m-288" value="" style="endArrow=classic;startArrow=classic;html=1;strokeWidth=3;" parent="1" edge="1">
          <mxGeometry width="50" height="50" relative="1" as="geometry">
            <mxPoint x="1835" y="431" as="sourcePoint" />
            <mxPoint x="1805" y="-101" as="targetPoint" />
            <Array as="points">
              <mxPoint x="1737" y="431" />
              <mxPoint x="1737.39" y="-101.5" />
            </Array>
          </mxGeometry>
        </mxCell>
        <mxCell id="6IJR6_nJIfUUgxYbHx2m-289" value="" style="endArrow=classic;html=1;strokeWidth=3;entryX=-0.072;entryY=0.633;entryDx=0;entryDy=0;entryPerimeter=0;" parent="1" edge="1">
          <mxGeometry width="50" height="50" relative="1" as="geometry">
            <mxPoint x="1735" y="151.01" as="sourcePoint" />
            <mxPoint x="1835.1236" y="150.28678000000036" as="targetPoint" />
          </mxGeometry>
        </mxCell>
        <mxCell id="6IJR6_nJIfUUgxYbHx2m-290" value="" style="endArrow=classic;html=1;strokeWidth=3;" parent="1" edge="1">
          <mxGeometry width="50" height="50" relative="1" as="geometry">
            <mxPoint x="1739.16" y="281.01" as="sourcePoint" />
            <mxPoint x="1845" y="281" as="targetPoint" />
          </mxGeometry>
        </mxCell>
        <mxCell id="6IJR6_nJIfUUgxYbHx2m-294" value="" style="shape=image;html=1;verticalAlign=top;verticalLabelPosition=bottom;labelBackgroundColor=#ffffff;imageAspect=0;aspect=fixed;image=https://cdn4.iconfinder.com/data/icons/VISTA/mail_icons/png/128/smtp_folder.png;strokeWidth=2;" parent="1" vertex="1">
          <mxGeometry x="2165" y="-541" width="67" height="67" as="geometry" />
        </mxCell>
        <mxCell id="6IJR6_nJIfUUgxYbHx2m-295" value="" style="verticalLabelPosition=bottom;html=1;fillColor=#A153A0;strokeColor=#ffffff;verticalAlign=top;align=center;points=[[0,0.5,0],[0.125,0.25,0],[0.25,0,0],[0.5,0,0],[0.75,0,0],[0.875,0.25,0],[1,0.5,0],[0.875,0.75,0],[0.75,1,0],[0.5,1,0],[0.125,0.75,0]];pointerEvents=1;shape=mxgraph.cisco_safe.compositeIcon;bgIcon=mxgraph.cisco_safe.design.blank_device;resIcon=mxgraph.cisco_safe.design.mdm;" parent="1" vertex="1">
          <mxGeometry x="2180" y="-386.5" width="50" height="45" as="geometry" />
        </mxCell>
        <mxCell id="6IJR6_nJIfUUgxYbHx2m-296" value="" style="verticalLabelPosition=bottom;html=1;fillColor=#A153A0;strokeColor=#ffffff;verticalAlign=top;align=center;points=[[0,0.5,0],[0.125,0.25,0],[0.25,0,0],[0.5,0,0],[0.75,0,0],[0.875,0.25,0],[1,0.5,0],[0.875,0.75,0],[0.75,1,0],[0.5,1,0],[0.125,0.75,0]];pointerEvents=1;shape=mxgraph.cisco_safe.compositeIcon;bgIcon=mxgraph.cisco_safe.design.blank_device;resIcon=mxgraph.cisco_safe.design.mdm_2;" parent="1" vertex="1">
          <mxGeometry x="2184" y="-324" width="50" height="45" as="geometry" />
        </mxCell>
        <mxCell id="6IJR6_nJIfUUgxYbHx2m-297" value="" style="shape=image;html=1;verticalAlign=top;verticalLabelPosition=bottom;labelBackgroundColor=#ffffff;imageAspect=0;aspect=fixed;image=https://cdn4.iconfinder.com/data/icons/logos-and-brands/512/256_Php_logo-128.png;strokeWidth=2;" parent="1" vertex="1">
          <mxGeometry x="2189.5" y="-204" width="70" height="70" as="geometry" />
        </mxCell>
        <mxCell id="6IJR6_nJIfUUgxYbHx2m-298" value="&lt;b&gt;&lt;font style=&quot;font-size: 18px&quot;&gt;Linux&lt;/font&gt;&lt;/b&gt;" style="text;html=1;align=center;verticalAlign=middle;resizable=0;points=[];autosize=1;" parent="1" vertex="1">
          <mxGeometry x="2023" y="-337" width="60" height="20" as="geometry" />
        </mxCell>
        <mxCell id="6IJR6_nJIfUUgxYbHx2m-299" value="&lt;b&gt;&lt;font style=&quot;font-size: 18px&quot;&gt;Apache&lt;/font&gt;&lt;/b&gt;" style="text;html=1;align=center;verticalAlign=middle;resizable=0;points=[];autosize=1;" parent="1" vertex="1">
          <mxGeometry x="2238" y="-612" width="80" height="20" as="geometry" />
        </mxCell>
        <mxCell id="6IJR6_nJIfUUgxYbHx2m-300" value="&lt;b&gt;&lt;font style=&quot;font-size: 18px&quot;&gt;Postfix&lt;/font&gt;&lt;/b&gt;" style="text;html=1;align=center;verticalAlign=middle;resizable=0;points=[];autosize=1;" parent="1" vertex="1">
          <mxGeometry x="2235" y="-523" width="80" height="20" as="geometry" />
        </mxCell>
        <mxCell id="6IJR6_nJIfUUgxYbHx2m-301" value="&lt;b&gt;&lt;font style=&quot;font-size: 18px&quot;&gt;Squid&lt;/font&gt;&lt;/b&gt;" style="text;html=1;align=center;verticalAlign=middle;resizable=0;points=[];autosize=1;" parent="1" vertex="1">
          <mxGeometry x="2285" y="-442" width="70" height="20" as="geometry" />
        </mxCell>
        <mxCell id="6IJR6_nJIfUUgxYbHx2m-302" value="&lt;b&gt;&lt;font style=&quot;font-size: 18px&quot;&gt;OpenMNS&lt;/font&gt;&lt;/b&gt;" style="text;html=1;align=center;verticalAlign=middle;resizable=0;points=[];autosize=1;" parent="1" vertex="1">
          <mxGeometry x="2238" y="-374" width="100" height="20" as="geometry" />
        </mxCell>
        <mxCell id="6IJR6_nJIfUUgxYbHx2m-303" value="&lt;b&gt;&lt;font style=&quot;font-size: 18px&quot;&gt;OpenLdap&lt;/font&gt;&lt;/b&gt;" style="text;html=1;align=center;verticalAlign=middle;resizable=0;points=[];autosize=1;" parent="1" vertex="1">
          <mxGeometry x="2240" y="-311.5" width="100" height="20" as="geometry" />
        </mxCell>
        <mxCell id="6IJR6_nJIfUUgxYbHx2m-304" value="&lt;b&gt;&lt;font style=&quot;font-size: 18px&quot;&gt;MySQL&lt;/font&gt;&lt;/b&gt;" style="text;html=1;align=center;verticalAlign=middle;resizable=0;points=[];autosize=1;" parent="1" vertex="1">
          <mxGeometry x="2245" y="-242" width="80" height="20" as="geometry" />
        </mxCell>
        <mxCell id="6IJR6_nJIfUUgxYbHx2m-305" value="&lt;b&gt;&lt;font style=&quot;font-size: 18px&quot;&gt;PHP&lt;/font&gt;&lt;/b&gt;" style="text;html=1;align=center;verticalAlign=middle;resizable=0;points=[];autosize=1;" parent="1" vertex="1">
          <mxGeometry x="2273" y="-179" width="50" height="20" as="geometry" />
        </mxCell>
        <mxCell id="6IJR6_nJIfUUgxYbHx2m-308" value="&lt;b&gt;&lt;font style=&quot;font-size: 18px&quot;&gt;Server Farm Infrastructure&lt;/font&gt;&lt;/b&gt;" style="text;html=1;align=center;verticalAlign=middle;resizable=0;points=[];autosize=1;" parent="1" vertex="1">
          <mxGeometry x="1703.13" y="-829" width="240" height="20" as="geometry" />
        </mxCell>
        <mxCell id="6IJR6_nJIfUUgxYbHx2m-309" value="&lt;b&gt;&lt;font style=&quot;font-size: 18px&quot;&gt;Software Infrastructure&lt;/font&gt;&lt;/b&gt;" style="text;html=1;align=center;verticalAlign=middle;resizable=0;points=[];autosize=1;" parent="1" vertex="1">
          <mxGeometry x="2160" y="-709" width="210" height="20" as="geometry" />
        </mxCell>
        <mxCell id="6IJR6_nJIfUUgxYbHx2m-310" value="" style="endArrow=classic;html=1;strokeWidth=3;" parent="1" edge="1">
          <mxGeometry width="50" height="50" relative="1" as="geometry">
            <mxPoint x="2139" y="-388" as="sourcePoint" />
            <mxPoint x="1960" y="-387.93" as="targetPoint" />
          </mxGeometry>
        </mxCell>
        <mxCell id="6IJR6_nJIfUUgxYbHx2m-293" value="" style="shadow=0;dashed=0;html=1;strokeColor=none;fillColor=#EF8F21;labelPosition=center;verticalLabelPosition=bottom;verticalAlign=top;align=center;outlineConnect=0;shape=mxgraph.veeam.linux;" parent="1" vertex="1">
          <mxGeometry x="2020" y="-429" width="63" height="70" as="geometry" />
        </mxCell>
        <mxCell id="6IJR6_nJIfUUgxYbHx2m-311" value="" style="rounded=1;whiteSpace=wrap;html=1;absoluteArcSize=1;arcSize=14;strokeWidth=2;" parent="1" vertex="1">
          <mxGeometry x="2145.5" y="158.5" width="265" height="550" as="geometry" />
        </mxCell>
        <mxCell id="6IJR6_nJIfUUgxYbHx2m-312" value="" style="dashed=0;outlineConnect=0;html=1;align=center;labelPosition=center;verticalLabelPosition=bottom;verticalAlign=top;shape=mxgraph.webicons.apache;gradientColor=#DFDEDE;strokeWidth=2;" parent="1" vertex="1">
          <mxGeometry x="2183.5" y="188.5" width="61.5" height="74" as="geometry" />
        </mxCell>
        <mxCell id="6IJR6_nJIfUUgxYbHx2m-313" value="" style="strokeColor=#dddddd;shadow=1;strokeWidth=1;rounded=1;absoluteArcSize=1;arcSize=2;" parent="1" vertex="1">
          <mxGeometry x="2180" y="364.5" width="120" height="44" as="geometry" />
        </mxCell>
        <mxCell id="6IJR6_nJIfUUgxYbHx2m-314" value="Squid Proxy" style="dashed=0;connectable=0;html=1;fillColor=#757575;strokeColor=none;shape=mxgraph.gcp2.squid_proxy;part=1;labelPosition=right;verticalLabelPosition=middle;align=left;verticalAlign=middle;spacingLeft=5;fontSize=12;" parent="6IJR6_nJIfUUgxYbHx2m-313" vertex="1">
          <mxGeometry y="0.5" width="32" height="32" relative="1" as="geometry">
            <mxPoint x="5" y="-16" as="offset" />
          </mxGeometry>
        </mxCell>
        <mxCell id="6IJR6_nJIfUUgxYbHx2m-315" value="" style="verticalLabelPosition=bottom;html=1;verticalAlign=top;align=center;strokeColor=none;fillColor=#00BEF2;shape=mxgraph.azure.mysql_database;" parent="1" vertex="1">
          <mxGeometry x="2214" y="567.5" width="50" height="56" as="geometry" />
        </mxCell>
        <mxCell id="6IJR6_nJIfUUgxYbHx2m-316" value="" style="shape=image;html=1;verticalAlign=top;verticalLabelPosition=bottom;labelBackgroundColor=#ffffff;imageAspect=0;aspect=fixed;image=https://cdn4.iconfinder.com/data/icons/VISTA/mail_icons/png/128/smtp_folder.png;strokeWidth=2;" parent="1" vertex="1">
          <mxGeometry x="2190" y="286.5" width="67" height="67" as="geometry" />
        </mxCell>
        <mxCell id="6IJR6_nJIfUUgxYbHx2m-317" value="" style="verticalLabelPosition=bottom;html=1;fillColor=#A153A0;strokeColor=#ffffff;verticalAlign=top;align=center;points=[[0,0.5,0],[0.125,0.25,0],[0.25,0,0],[0.5,0,0],[0.75,0,0],[0.875,0.25,0],[1,0.5,0],[0.875,0.75,0],[0.75,1,0],[0.5,1,0],[0.125,0.75,0]];pointerEvents=1;shape=mxgraph.cisco_safe.compositeIcon;bgIcon=mxgraph.cisco_safe.design.blank_device;resIcon=mxgraph.cisco_safe.design.mdm;" parent="1" vertex="1">
          <mxGeometry x="2205" y="441" width="50" height="45" as="geometry" />
        </mxCell>
        <mxCell id="6IJR6_nJIfUUgxYbHx2m-318" value="" style="verticalLabelPosition=bottom;html=1;fillColor=#A153A0;strokeColor=#ffffff;verticalAlign=top;align=center;points=[[0,0.5,0],[0.125,0.25,0],[0.25,0,0],[0.5,0,0],[0.75,0,0],[0.875,0.25,0],[1,0.5,0],[0.875,0.75,0],[0.75,1,0],[0.5,1,0],[0.125,0.75,0]];pointerEvents=1;shape=mxgraph.cisco_safe.compositeIcon;bgIcon=mxgraph.cisco_safe.design.blank_device;resIcon=mxgraph.cisco_safe.design.mdm_2;" parent="1" vertex="1">
          <mxGeometry x="2209" y="503.5" width="50" height="45" as="geometry" />
        </mxCell>
        <mxCell id="6IJR6_nJIfUUgxYbHx2m-319" value="" style="shape=image;html=1;verticalAlign=top;verticalLabelPosition=bottom;labelBackgroundColor=#ffffff;imageAspect=0;aspect=fixed;image=https://cdn4.iconfinder.com/data/icons/logos-and-brands/512/256_Php_logo-128.png;strokeWidth=2;" parent="1" vertex="1">
          <mxGeometry x="2214.5" y="623.5" width="70" height="70" as="geometry" />
        </mxCell>
        <mxCell id="6IJR6_nJIfUUgxYbHx2m-320" value="&lt;b&gt;&lt;font style=&quot;font-size: 18px&quot;&gt;Linux&lt;/font&gt;&lt;/b&gt;" style="text;html=1;align=center;verticalAlign=middle;resizable=0;points=[];autosize=1;" parent="1" vertex="1">
          <mxGeometry x="2048" y="490.5" width="60" height="20" as="geometry" />
        </mxCell>
        <mxCell id="6IJR6_nJIfUUgxYbHx2m-321" value="&lt;b&gt;&lt;font style=&quot;font-size: 18px&quot;&gt;Apache&lt;/font&gt;&lt;/b&gt;" style="text;html=1;align=center;verticalAlign=middle;resizable=0;points=[];autosize=1;" parent="1" vertex="1">
          <mxGeometry x="2263" y="215.5" width="80" height="20" as="geometry" />
        </mxCell>
        <mxCell id="6IJR6_nJIfUUgxYbHx2m-322" value="&lt;b&gt;&lt;font style=&quot;font-size: 18px&quot;&gt;Postfix&lt;/font&gt;&lt;/b&gt;" style="text;html=1;align=center;verticalAlign=middle;resizable=0;points=[];autosize=1;" parent="1" vertex="1">
          <mxGeometry x="2260" y="304.5" width="80" height="20" as="geometry" />
        </mxCell>
        <mxCell id="6IJR6_nJIfUUgxYbHx2m-323" value="&lt;b&gt;&lt;font style=&quot;font-size: 18px&quot;&gt;Squid&lt;/font&gt;&lt;/b&gt;" style="text;html=1;align=center;verticalAlign=middle;resizable=0;points=[];autosize=1;" parent="1" vertex="1">
          <mxGeometry x="2310" y="385.5" width="70" height="20" as="geometry" />
        </mxCell>
        <mxCell id="6IJR6_nJIfUUgxYbHx2m-324" value="&lt;b&gt;&lt;font style=&quot;font-size: 18px&quot;&gt;OpenMNS&lt;/font&gt;&lt;/b&gt;" style="text;html=1;align=center;verticalAlign=middle;resizable=0;points=[];autosize=1;" parent="1" vertex="1">
          <mxGeometry x="2263" y="453.5" width="100" height="20" as="geometry" />
        </mxCell>
        <mxCell id="6IJR6_nJIfUUgxYbHx2m-325" value="&lt;b&gt;&lt;font style=&quot;font-size: 18px&quot;&gt;OpenLdap&lt;/font&gt;&lt;/b&gt;" style="text;html=1;align=center;verticalAlign=middle;resizable=0;points=[];autosize=1;" parent="1" vertex="1">
          <mxGeometry x="2265" y="516" width="100" height="20" as="geometry" />
        </mxCell>
        <mxCell id="6IJR6_nJIfUUgxYbHx2m-326" value="&lt;b&gt;&lt;font style=&quot;font-size: 18px&quot;&gt;MySQL&lt;/font&gt;&lt;/b&gt;" style="text;html=1;align=center;verticalAlign=middle;resizable=0;points=[];autosize=1;" parent="1" vertex="1">
          <mxGeometry x="2270" y="585.5" width="80" height="20" as="geometry" />
        </mxCell>
        <mxCell id="6IJR6_nJIfUUgxYbHx2m-327" value="&lt;b&gt;&lt;font style=&quot;font-size: 18px&quot;&gt;PHP&lt;/font&gt;&lt;/b&gt;" style="text;html=1;align=center;verticalAlign=middle;resizable=0;points=[];autosize=1;" parent="1" vertex="1">
          <mxGeometry x="2298" y="648.5" width="50" height="20" as="geometry" />
        </mxCell>
        <mxCell id="6IJR6_nJIfUUgxYbHx2m-328" value="&lt;b&gt;&lt;font style=&quot;font-size: 18px&quot;&gt;Software Infrastructure Staging&lt;/font&gt;&lt;/b&gt;" style="text;html=1;align=center;verticalAlign=middle;resizable=0;points=[];autosize=1;" parent="1" vertex="1">
          <mxGeometry x="2132" y="118.5" width="280" height="20" as="geometry" />
        </mxCell>
        <mxCell id="6IJR6_nJIfUUgxYbHx2m-330" value="" style="endArrow=classic;html=1;strokeWidth=3;" parent="1" edge="1">
          <mxGeometry width="50" height="50" relative="1" as="geometry">
            <mxPoint x="2142.5" y="432.78999999999996" as="sourcePoint" />
            <mxPoint x="1963.5" y="432.8599999999997" as="targetPoint" />
          </mxGeometry>
        </mxCell>
        <mxCell id="6IJR6_nJIfUUgxYbHx2m-329" value="" style="shadow=0;dashed=0;html=1;strokeColor=none;fillColor=#EF8F21;labelPosition=center;verticalLabelPosition=bottom;verticalAlign=top;align=center;outlineConnect=0;shape=mxgraph.veeam.linux;" parent="1" vertex="1">
          <mxGeometry x="2045" y="398.5" width="63" height="70" as="geometry" />
        </mxCell>
        <mxCell id="6IJR6_nJIfUUgxYbHx2m-331" value="" style="verticalLabelPosition=bottom;aspect=fixed;html=1;verticalAlign=top;strokeColor=none;align=center;outlineConnect=0;shape=mxgraph.citrix.desktop;" parent="1" vertex="1">
          <mxGeometry x="442.5" y="117.5" width="55" height="60.56" as="geometry" />
        </mxCell>
        <mxCell id="6IJR6_nJIfUUgxYbHx2m-338" value="" style="verticalLabelPosition=bottom;aspect=fixed;html=1;verticalAlign=top;strokeColor=none;align=center;outlineConnect=0;shape=mxgraph.citrix.desktop;" parent="1" vertex="1">
          <mxGeometry x="386" y="117.5" width="55" height="60.56" as="geometry" />
        </mxCell>
        <mxCell id="6IJR6_nJIfUUgxYbHx2m-339" value="" style="verticalLabelPosition=bottom;aspect=fixed;html=1;verticalAlign=top;strokeColor=none;align=center;outlineConnect=0;shape=mxgraph.citrix.desktop;" parent="1" vertex="1">
          <mxGeometry x="157.5" y="117.5" width="55" height="60.56" as="geometry" />
        </mxCell>
        <mxCell id="6IJR6_nJIfUUgxYbHx2m-340" value="" style="verticalLabelPosition=bottom;aspect=fixed;html=1;verticalAlign=top;strokeColor=none;align=center;outlineConnect=0;shape=mxgraph.citrix.desktop;" parent="1" vertex="1">
          <mxGeometry x="100.5" y="120.06" width="55" height="60.56" as="geometry" />
        </mxCell>
        <mxCell id="6IJR6_nJIfUUgxYbHx2m-341" value="" style="verticalLabelPosition=bottom;aspect=fixed;html=1;verticalAlign=top;strokeColor=none;align=center;outlineConnect=0;shape=mxgraph.citrix.desktop;" parent="1" vertex="1">
          <mxGeometry x="328.5" y="119.5" width="55" height="60.56" as="geometry" />
        </mxCell>
        <mxCell id="6IJR6_nJIfUUgxYbHx2m-343" value="" style="verticalLabelPosition=bottom;aspect=fixed;html=1;verticalAlign=top;strokeColor=none;align=center;outlineConnect=0;shape=mxgraph.citrix.desktop;" parent="1" vertex="1">
          <mxGeometry x="270.5" y="120.06" width="55" height="60.56" as="geometry" />
        </mxCell>
        <mxCell id="6IJR6_nJIfUUgxYbHx2m-345" value="" style="verticalLabelPosition=bottom;aspect=fixed;html=1;verticalAlign=top;strokeColor=none;align=center;outlineConnect=0;shape=mxgraph.citrix.desktop;" parent="1" vertex="1">
          <mxGeometry x="43" y="117.5" width="55" height="60.56" as="geometry" />
        </mxCell>
        <mxCell id="6IJR6_nJIfUUgxYbHx2m-356" value="" style="verticalLabelPosition=bottom;aspect=fixed;html=1;verticalAlign=top;strokeColor=none;align=center;outlineConnect=0;shape=mxgraph.citrix.desktop;" parent="1" vertex="1">
          <mxGeometry x="216" y="120.06" width="55" height="60.56" as="geometry" />
        </mxCell>
        <mxCell id="6IJR6_nJIfUUgxYbHx2m-369" value="" style="verticalLabelPosition=bottom;aspect=fixed;html=1;verticalAlign=top;strokeColor=none;align=center;outlineConnect=0;shape=mxgraph.citrix.desktop;" parent="1" vertex="1">
          <mxGeometry x="500" y="117.5" width="55" height="60.56" as="geometry" />
        </mxCell>
        <mxCell id="6IJR6_nJIfUUgxYbHx2m-370" value="" style="verticalLabelPosition=bottom;aspect=fixed;html=1;verticalAlign=top;strokeColor=none;align=center;outlineConnect=0;shape=mxgraph.citrix.desktop;" parent="1" vertex="1">
          <mxGeometry x="556" y="117.5" width="55" height="60.56" as="geometry" />
        </mxCell>
        <mxCell id="6IJR6_nJIfUUgxYbHx2m-371" value="" style="verticalLabelPosition=bottom;aspect=fixed;html=1;verticalAlign=top;strokeColor=none;align=center;outlineConnect=0;shape=mxgraph.citrix.desktop;" parent="1" vertex="1">
          <mxGeometry x="613" y="120.06" width="55" height="60.56" as="geometry" />
        </mxCell>
        <mxCell id="6IJR6_nJIfUUgxYbHx2m-372" value="" style="verticalLabelPosition=bottom;aspect=fixed;html=1;verticalAlign=top;strokeColor=none;align=center;outlineConnect=0;shape=mxgraph.citrix.desktop;" parent="1" vertex="1">
          <mxGeometry x="674" y="117.5" width="55" height="60.56" as="geometry" />
        </mxCell>
        <mxCell id="6IJR6_nJIfUUgxYbHx2m-373" value="" style="verticalLabelPosition=bottom;aspect=fixed;html=1;verticalAlign=top;strokeColor=none;align=center;outlineConnect=0;shape=mxgraph.citrix.desktop;" parent="1" vertex="1">
          <mxGeometry x="734" y="117.5" width="55" height="60.56" as="geometry" />
        </mxCell>
        <mxCell id="6IJR6_nJIfUUgxYbHx2m-374" value="" style="verticalLabelPosition=bottom;aspect=fixed;html=1;verticalAlign=top;strokeColor=none;align=center;outlineConnect=0;shape=mxgraph.citrix.desktop;" parent="1" vertex="1">
          <mxGeometry x="797" y="119.5" width="55" height="60.56" as="geometry" />
        </mxCell>
        <mxCell id="6IJR6_nJIfUUgxYbHx2m-375" value="" style="verticalLabelPosition=bottom;aspect=fixed;html=1;verticalAlign=top;strokeColor=none;align=center;outlineConnect=0;shape=mxgraph.citrix.desktop;" parent="1" vertex="1">
          <mxGeometry x="859" y="118.5" width="55" height="60.56" as="geometry" />
        </mxCell>
        <mxCell id="6IJR6_nJIfUUgxYbHx2m-376" value="" style="verticalLabelPosition=bottom;aspect=fixed;html=1;verticalAlign=top;strokeColor=none;align=center;outlineConnect=0;shape=mxgraph.citrix.desktop;" parent="1" vertex="1">
          <mxGeometry x="921" y="118.5" width="55" height="60.56" as="geometry" />
        </mxCell>
        <mxCell id="6IJR6_nJIfUUgxYbHx2m-377" value="" style="verticalLabelPosition=bottom;aspect=fixed;html=1;verticalAlign=top;strokeColor=none;align=center;outlineConnect=0;shape=mxgraph.citrix.desktop;" parent="1" vertex="1">
          <mxGeometry x="983" y="116.94" width="55" height="60.56" as="geometry" />
        </mxCell>
        <mxCell id="6IJR6_nJIfUUgxYbHx2m-378" value="" style="verticalLabelPosition=bottom;aspect=fixed;html=1;verticalAlign=top;strokeColor=none;align=center;outlineConnect=0;shape=mxgraph.citrix.desktop;" parent="1" vertex="1">
          <mxGeometry x="1047.69" y="117.5" width="55" height="60.56" as="geometry" />
        </mxCell>
        <mxCell id="6IJR6_nJIfUUgxYbHx2m-379" value="" style="verticalLabelPosition=bottom;aspect=fixed;html=1;verticalAlign=top;strokeColor=none;align=center;outlineConnect=0;shape=mxgraph.citrix.desktop;" parent="1" vertex="1">
          <mxGeometry x="1413" y="116.94" width="55" height="60.56" as="geometry" />
        </mxCell>
        <mxCell id="6IJR6_nJIfUUgxYbHx2m-380" value="" style="verticalLabelPosition=bottom;aspect=fixed;html=1;verticalAlign=top;strokeColor=none;align=center;outlineConnect=0;shape=mxgraph.citrix.desktop;" parent="1" vertex="1">
          <mxGeometry x="1354" y="116.94" width="55" height="60.56" as="geometry" />
        </mxCell>
        <mxCell id="6IJR6_nJIfUUgxYbHx2m-381" value="" style="verticalLabelPosition=bottom;aspect=fixed;html=1;verticalAlign=top;strokeColor=none;align=center;outlineConnect=0;shape=mxgraph.citrix.desktop;" parent="1" vertex="1">
          <mxGeometry x="1112" y="118.5" width="55" height="60.56" as="geometry" />
        </mxCell>
        <mxCell id="6IJR6_nJIfUUgxYbHx2m-382" value="" style="verticalLabelPosition=bottom;aspect=fixed;html=1;verticalAlign=top;strokeColor=none;align=center;outlineConnect=0;shape=mxgraph.citrix.desktop;" parent="1" vertex="1">
          <mxGeometry x="1170.5" y="116.94" width="55" height="60.56" as="geometry" />
        </mxCell>
        <mxCell id="6IJR6_nJIfUUgxYbHx2m-383" value="" style="verticalLabelPosition=bottom;aspect=fixed;html=1;verticalAlign=top;strokeColor=none;align=center;outlineConnect=0;shape=mxgraph.citrix.desktop;" parent="1" vertex="1">
          <mxGeometry x="1233" y="116.94" width="55" height="60.56" as="geometry" />
        </mxCell>
        <mxCell id="6IJR6_nJIfUUgxYbHx2m-384" value="" style="verticalLabelPosition=bottom;aspect=fixed;html=1;verticalAlign=top;strokeColor=none;align=center;outlineConnect=0;shape=mxgraph.citrix.desktop;" parent="1" vertex="1">
          <mxGeometry x="1292" y="116.94" width="55" height="60.56" as="geometry" />
        </mxCell>
        <mxCell id="6IJR6_nJIfUUgxYbHx2m-386" value="" style="verticalLabelPosition=bottom;aspect=fixed;html=1;verticalAlign=top;strokeColor=none;align=center;outlineConnect=0;shape=mxgraph.citrix.desktop;" parent="1" vertex="1">
          <mxGeometry x="1473" y="116.94" width="55" height="60.56" as="geometry" />
        </mxCell>
        <mxCell id="6IJR6_nJIfUUgxYbHx2m-387" value="" style="verticalLabelPosition=bottom;aspect=fixed;html=1;verticalAlign=top;strokeColor=none;align=center;outlineConnect=0;shape=mxgraph.citrix.desktop;" parent="1" vertex="1">
          <mxGeometry x="418.87" y="290.38" width="55" height="60.56" as="geometry" />
        </mxCell>
        <mxCell id="6IJR6_nJIfUUgxYbHx2m-388" value="" style="verticalLabelPosition=bottom;aspect=fixed;html=1;verticalAlign=top;strokeColor=none;align=center;outlineConnect=0;shape=mxgraph.citrix.desktop;" parent="1" vertex="1">
          <mxGeometry x="362.37" y="290.38" width="55" height="60.56" as="geometry" />
        </mxCell>
        <mxCell id="6IJR6_nJIfUUgxYbHx2m-389" value="" style="verticalLabelPosition=bottom;aspect=fixed;html=1;verticalAlign=top;strokeColor=none;align=center;outlineConnect=0;shape=mxgraph.citrix.desktop;" parent="1" vertex="1">
          <mxGeometry x="133.87" y="290.38" width="55" height="60.56" as="geometry" />
        </mxCell>
        <mxCell id="6IJR6_nJIfUUgxYbHx2m-390" value="" style="verticalLabelPosition=bottom;aspect=fixed;html=1;verticalAlign=top;strokeColor=none;align=center;outlineConnect=0;shape=mxgraph.citrix.desktop;" parent="1" vertex="1">
          <mxGeometry x="76.87" y="292.94" width="55" height="60.56" as="geometry" />
        </mxCell>
        <mxCell id="6IJR6_nJIfUUgxYbHx2m-391" value="" style="verticalLabelPosition=bottom;aspect=fixed;html=1;verticalAlign=top;strokeColor=none;align=center;outlineConnect=0;shape=mxgraph.citrix.desktop;" parent="1" vertex="1">
          <mxGeometry x="304.87" y="292.38" width="55" height="60.56" as="geometry" />
        </mxCell>
        <mxCell id="6IJR6_nJIfUUgxYbHx2m-392" value="" style="verticalLabelPosition=bottom;aspect=fixed;html=1;verticalAlign=top;strokeColor=none;align=center;outlineConnect=0;shape=mxgraph.citrix.desktop;" parent="1" vertex="1">
          <mxGeometry x="246.87" y="292.94" width="55" height="60.56" as="geometry" />
        </mxCell>
        <mxCell id="6IJR6_nJIfUUgxYbHx2m-393" value="" style="verticalLabelPosition=bottom;aspect=fixed;html=1;verticalAlign=top;strokeColor=none;align=center;outlineConnect=0;shape=mxgraph.citrix.desktop;" parent="1" vertex="1">
          <mxGeometry x="19.37" y="290.38" width="55" height="60.56" as="geometry" />
        </mxCell>
        <mxCell id="6IJR6_nJIfUUgxYbHx2m-394" value="" style="verticalLabelPosition=bottom;aspect=fixed;html=1;verticalAlign=top;strokeColor=none;align=center;outlineConnect=0;shape=mxgraph.citrix.desktop;" parent="1" vertex="1">
          <mxGeometry x="192.37" y="292.94" width="55" height="60.56" as="geometry" />
        </mxCell>
        <mxCell id="6IJR6_nJIfUUgxYbHx2m-395" value="" style="verticalLabelPosition=bottom;aspect=fixed;html=1;verticalAlign=top;strokeColor=none;align=center;outlineConnect=0;shape=mxgraph.citrix.desktop;" parent="1" vertex="1">
          <mxGeometry x="476.37" y="290.38" width="55" height="60.56" as="geometry" />
        </mxCell>
        <mxCell id="6IJR6_nJIfUUgxYbHx2m-396" value="" style="verticalLabelPosition=bottom;aspect=fixed;html=1;verticalAlign=top;strokeColor=none;align=center;outlineConnect=0;shape=mxgraph.citrix.desktop;" parent="1" vertex="1">
          <mxGeometry x="532.37" y="290.38" width="55" height="60.56" as="geometry" />
        </mxCell>
        <mxCell id="6IJR6_nJIfUUgxYbHx2m-397" value="" style="verticalLabelPosition=bottom;aspect=fixed;html=1;verticalAlign=top;strokeColor=none;align=center;outlineConnect=0;shape=mxgraph.citrix.desktop;" parent="1" vertex="1">
          <mxGeometry x="589.37" y="292.94" width="55" height="60.56" as="geometry" />
        </mxCell>
        <mxCell id="6IJR6_nJIfUUgxYbHx2m-398" value="" style="verticalLabelPosition=bottom;aspect=fixed;html=1;verticalAlign=top;strokeColor=none;align=center;outlineConnect=0;shape=mxgraph.citrix.desktop;" parent="1" vertex="1">
          <mxGeometry x="650.37" y="290.38" width="55" height="60.56" as="geometry" />
        </mxCell>
        <mxCell id="6IJR6_nJIfUUgxYbHx2m-399" value="" style="verticalLabelPosition=bottom;aspect=fixed;html=1;verticalAlign=top;strokeColor=none;align=center;outlineConnect=0;shape=mxgraph.citrix.desktop;" parent="1" vertex="1">
          <mxGeometry x="710.37" y="290.38" width="55" height="60.56" as="geometry" />
        </mxCell>
        <mxCell id="6IJR6_nJIfUUgxYbHx2m-400" value="" style="verticalLabelPosition=bottom;aspect=fixed;html=1;verticalAlign=top;strokeColor=none;align=center;outlineConnect=0;shape=mxgraph.citrix.desktop;" parent="1" vertex="1">
          <mxGeometry x="773.37" y="292.38" width="55" height="60.56" as="geometry" />
        </mxCell>
        <mxCell id="6IJR6_nJIfUUgxYbHx2m-401" value="" style="verticalLabelPosition=bottom;aspect=fixed;html=1;verticalAlign=top;strokeColor=none;align=center;outlineConnect=0;shape=mxgraph.citrix.desktop;" parent="1" vertex="1">
          <mxGeometry x="835.37" y="291.38" width="55" height="60.56" as="geometry" />
        </mxCell>
        <mxCell id="6IJR6_nJIfUUgxYbHx2m-402" value="" style="verticalLabelPosition=bottom;aspect=fixed;html=1;verticalAlign=top;strokeColor=none;align=center;outlineConnect=0;shape=mxgraph.citrix.desktop;" parent="1" vertex="1">
          <mxGeometry x="897.37" y="291.38" width="55" height="60.56" as="geometry" />
        </mxCell>
        <mxCell id="6IJR6_nJIfUUgxYbHx2m-403" value="" style="verticalLabelPosition=bottom;aspect=fixed;html=1;verticalAlign=top;strokeColor=none;align=center;outlineConnect=0;shape=mxgraph.citrix.desktop;" parent="1" vertex="1">
          <mxGeometry x="959.37" y="289.82" width="55" height="60.56" as="geometry" />
        </mxCell>
        <mxCell id="6IJR6_nJIfUUgxYbHx2m-404" value="" style="verticalLabelPosition=bottom;aspect=fixed;html=1;verticalAlign=top;strokeColor=none;align=center;outlineConnect=0;shape=mxgraph.citrix.desktop;" parent="1" vertex="1">
          <mxGeometry x="1024.06" y="290.38" width="55" height="60.56" as="geometry" />
        </mxCell>
        <mxCell id="6IJR6_nJIfUUgxYbHx2m-405" value="" style="verticalLabelPosition=bottom;aspect=fixed;html=1;verticalAlign=top;strokeColor=none;align=center;outlineConnect=0;shape=mxgraph.citrix.desktop;" parent="1" vertex="1">
          <mxGeometry x="1389.37" y="289.82" width="55" height="60.56" as="geometry" />
        </mxCell>
        <mxCell id="6IJR6_nJIfUUgxYbHx2m-406" value="" style="verticalLabelPosition=bottom;aspect=fixed;html=1;verticalAlign=top;strokeColor=none;align=center;outlineConnect=0;shape=mxgraph.citrix.desktop;" parent="1" vertex="1">
          <mxGeometry x="1330.37" y="289.82" width="55" height="60.56" as="geometry" />
        </mxCell>
        <mxCell id="6IJR6_nJIfUUgxYbHx2m-407" value="" style="verticalLabelPosition=bottom;aspect=fixed;html=1;verticalAlign=top;strokeColor=none;align=center;outlineConnect=0;shape=mxgraph.citrix.desktop;" parent="1" vertex="1">
          <mxGeometry x="1088.37" y="291.38" width="55" height="60.56" as="geometry" />
        </mxCell>
        <mxCell id="6IJR6_nJIfUUgxYbHx2m-408" value="" style="verticalLabelPosition=bottom;aspect=fixed;html=1;verticalAlign=top;strokeColor=none;align=center;outlineConnect=0;shape=mxgraph.citrix.desktop;" parent="1" vertex="1">
          <mxGeometry x="1146.87" y="289.82" width="55" height="60.56" as="geometry" />
        </mxCell>
        <mxCell id="6IJR6_nJIfUUgxYbHx2m-409" value="" style="verticalLabelPosition=bottom;aspect=fixed;html=1;verticalAlign=top;strokeColor=none;align=center;outlineConnect=0;shape=mxgraph.citrix.desktop;" parent="1" vertex="1">
          <mxGeometry x="1209.37" y="289.82" width="55" height="60.56" as="geometry" />
        </mxCell>
        <mxCell id="6IJR6_nJIfUUgxYbHx2m-410" value="" style="verticalLabelPosition=bottom;aspect=fixed;html=1;verticalAlign=top;strokeColor=none;align=center;outlineConnect=0;shape=mxgraph.citrix.desktop;" parent="1" vertex="1">
          <mxGeometry x="1268.37" y="289.82" width="55" height="60.56" as="geometry" />
        </mxCell>
        <mxCell id="6IJR6_nJIfUUgxYbHx2m-411" value="" style="verticalLabelPosition=bottom;aspect=fixed;html=1;verticalAlign=top;strokeColor=none;align=center;outlineConnect=0;shape=mxgraph.citrix.desktop;" parent="1" vertex="1">
          <mxGeometry x="1449.37" y="289.82" width="55" height="60.56" as="geometry" />
        </mxCell>
        <mxCell id="6IJR6_nJIfUUgxYbHx2m-412" value="" style="image;html=1;image=img/lib/clip_art/computers/Laptop_128x128.png;strokeWidth=2;" parent="1" vertex="1">
          <mxGeometry x="191" y="397.5" width="80" height="80" as="geometry" />
        </mxCell>
        <mxCell id="6IJR6_nJIfUUgxYbHx2m-413" value="" style="image;html=1;image=img/lib/clip_art/computers/Laptop_128x128.png;strokeWidth=2;" parent="1" vertex="1">
          <mxGeometry x="271" y="455" width="80" height="80" as="geometry" />
        </mxCell>
        <mxCell id="6IJR6_nJIfUUgxYbHx2m-414" value="" style="image;html=1;image=img/lib/clip_art/computers/Laptop_128x128.png;strokeWidth=2;" parent="1" vertex="1">
          <mxGeometry x="372" y="473" width="80" height="80" as="geometry" />
        </mxCell>
        <mxCell id="6IJR6_nJIfUUgxYbHx2m-415" value="" style="image;html=1;image=img/lib/clip_art/computers/Laptop_128x128.png;strokeWidth=2;" parent="1" vertex="1">
          <mxGeometry x="465" y="480" width="80" height="80" as="geometry" />
        </mxCell>
        <mxCell id="6IJR6_nJIfUUgxYbHx2m-416" value="" style="image;html=1;image=img/lib/clip_art/computers/Laptop_128x128.png;strokeWidth=2;" parent="1" vertex="1">
          <mxGeometry x="587.37" y="480" width="80" height="80" as="geometry" />
        </mxCell>
        <mxCell id="6IJR6_nJIfUUgxYbHx2m-417" value="" style="image;html=1;image=img/lib/clip_art/computers/Laptop_128x128.png;strokeWidth=2;" parent="1" vertex="1">
          <mxGeometry x="695.87" y="465" width="80" height="80" as="geometry" />
        </mxCell>
        <mxCell id="6IJR6_nJIfUUgxYbHx2m-418" value="" style="image;html=1;image=img/lib/clip_art/computers/Laptop_128x128.png;strokeWidth=2;" parent="1" vertex="1">
          <mxGeometry x="799" y="455" width="80" height="80" as="geometry" />
        </mxCell>
        <mxCell id="6IJR6_nJIfUUgxYbHx2m-419" value="" style="image;html=1;image=img/lib/clip_art/computers/Laptop_128x128.png;strokeWidth=2;" parent="1" vertex="1">
          <mxGeometry x="879" y="411" width="80" height="80" as="geometry" />
        </mxCell>
        <mxCell id="6IJR6_nJIfUUgxYbHx2m-420" value="" style="html=1;verticalLabelPosition=bottom;align=center;labelBackgroundColor=#ffffff;verticalAlign=top;strokeWidth=2;strokeColor=#0080F0;shadow=0;dashed=0;shape=mxgraph.ios7.icons.wifi;pointerEvents=1" parent="1" vertex="1">
          <mxGeometry x="532.17" y="443" width="29.83" height="34.5" as="geometry" />
        </mxCell>
        <mxCell id="6IJR6_nJIfUUgxYbHx2m-426" value="" style="endArrow=classic;html=1;strokeWidth=3;entryX=0.5;entryY=0;entryDx=0;entryDy=0;entryPerimeter=0;" parent="1" target="6IJR6_nJIfUUgxYbHx2m-64" edge="1">
          <mxGeometry width="50" height="50" relative="1" as="geometry">
            <mxPoint x="1514" y="331" as="sourcePoint" />
            <mxPoint x="1564" y="281" as="targetPoint" />
            <Array as="points">
              <mxPoint x="1567" y="331" />
            </Array>
          </mxGeometry>
        </mxCell>
        <mxCell id="6IJR6_nJIfUUgxYbHx2m-427" value="" style="endArrow=classic;html=1;strokeWidth=3;entryX=0;entryY=0.75;entryDx=0;entryDy=0;entryPerimeter=0;" parent="1" target="6IJR6_nJIfUUgxYbHx2m-146" edge="1">
          <mxGeometry width="50" height="50" relative="1" as="geometry">
            <mxPoint x="390" y="-22" as="sourcePoint" />
            <mxPoint x="440" y="-89" as="targetPoint" />
            <Array as="points">
              <mxPoint x="390" y="-80" />
            </Array>
          </mxGeometry>
        </mxCell>
        <mxCell id="6IJR6_nJIfUUgxYbHx2m-428" value="" style="endArrow=classic;html=1;strokeWidth=3;exitX=1;exitY=0.5;exitDx=0;exitDy=0;exitPerimeter=0;entryX=0.885;entryY=0.993;entryDx=0;entryDy=0;entryPerimeter=0;" parent="1" source="6IJR6_nJIfUUgxYbHx2m-64" target="6IJR6_nJIfUUgxYbHx2m-146" edge="1">
          <mxGeometry width="50" height="50" relative="1" as="geometry">
            <mxPoint x="1376" y="12.5" as="sourcePoint" />
            <mxPoint x="1426" y="-37.5" as="targetPoint" />
            <Array as="points">
              <mxPoint x="830" y="10" />
              <mxPoint x="690" y="10" />
              <mxPoint x="550" y="10" />
            </Array>
          </mxGeometry>
        </mxCell>
        <mxCell id="6IJR6_nJIfUUgxYbHx2m-429" value="" style="endArrow=classic;html=1;strokeWidth=3;" parent="1" edge="1">
          <mxGeometry width="50" height="50" relative="1" as="geometry">
            <mxPoint x="40" y="160" as="sourcePoint" />
            <mxPoint x="331" y="1" as="targetPoint" />
            <Array as="points">
              <mxPoint x="10" y="160" />
              <mxPoint x="10" y="1" />
            </Array>
          </mxGeometry>
        </mxCell>
        <mxCell id="6IJR6_nJIfUUgxYbHx2m-430" value="&lt;b&gt;&lt;font style=&quot;font-size: 18px&quot;&gt;Personal Computer pre-loaded with Windows 10&lt;/font&gt;&lt;/b&gt;" style="text;html=1;align=center;verticalAlign=middle;resizable=0;points=[];autosize=1;" parent="1" vertex="1">
          <mxGeometry x="486.5" y="230" width="430" height="20" as="geometry" />
        </mxCell>
        <mxCell id="6IJR6_nJIfUUgxYbHx2m-431" value="&lt;b&gt;&lt;font style=&quot;font-size: 18px&quot;&gt;Laptop&lt;/font&gt;&lt;/b&gt;" style="text;html=1;align=center;verticalAlign=middle;resizable=0;points=[];autosize=1;" parent="1" vertex="1">
          <mxGeometry x="517.87" y="565.5" width="80" height="20" as="geometry" />
        </mxCell>
      </root>
    </mxGraphModel>
  </diagram>
</mxfile>
